<?xml version="1.0" encoding="UTF-8"?>
<svg width="20px" height="24px" viewBox="0 0 20 24" version="1.1" xmlns="http://www.w3.org/2000/svg" xmlns:xlink="http://www.w3.org/1999/xlink">
    <!-- Generator: Sketch 49.2 (51160) - http://www.bohemiancoding.com/sketch -->
    <title>Fill 1</title>
    <desc>Created with Sketch.</desc>
    <defs></defs>
    <g id="Symbols" stroke="none" stroke-width="1" fill="none" fill-rule="evenodd">
        <g id="报名查询new" transform="translate(-44.000000, -209.000000)" fill="#FFFFFF">
            <g id="Group-10-Copy-4">
                <g id="Group-9" transform="translate(14.000000, 16.000000)">
                    <path d="M43.6534547,210.732671 C43.4949116,210.903741 43.2763792,210.990583 43.0578468,210.990583 C42.8650241,210.990583 42.6722014,210.92362 42.5184788,210.787601 L39.6475629,208.25085 C39.6004285,208.255558 39.5549009,208.264452 39.5061596,208.264452 C38.7664703,208.264452 38.167113,207.679048 38.167113,206.956579 C38.167113,206.530212 38.379218,206.155114 38.7027317,205.916558 L38.7027317,201.725085 C38.7027317,201.291917 39.0626674,200.940361 39.5061596,200.940361 C39.9496518,200.940361 40.3095876,201.291917 40.3095876,201.725085 L40.3095876,205.916558 C40.6325656,206.155114 40.8452062,206.530212 40.8452062,206.956579 C40.8452062,207.030343 40.8344938,207.102014 40.8232458,207.172116 L43.5972148,209.624117 C43.9260846,209.914988 43.9512587,210.411457 43.6534547,210.732671 M49.0241028,198.185456 L44.8393144,193.986137 C44.2785217,193.423751 43.2490627,193 42.4450991,193 L31.8746652,193 C30.8409213,193 30,193.821344 30,194.831023 L30,215.168977 C30,216.178656 30.8409213,217 31.8746652,217 L48.1253348,217 C49.1585431,217 50,216.178656 50,215.168977 L50,200.528642 C50,199.750719 49.580075,198.743134 49.0241028,198.185456" id="Fill-1"></path>
                </g>
            </g>
        </g>
    </g>
</svg>