<?xml version="1.0" encoding="UTF-8"?>
<svg width="20px" height="24px" viewBox="0 0 20 24" version="1.1" xmlns="http://www.w3.org/2000/svg" xmlns:xlink="http://www.w3.org/1999/xlink">
    <!-- Generator: Sketch 49.2 (51160) - http://www.bohemiancoding.com/sketch -->
    <title>Fill 4</title>
    <desc>Created with Sketch.</desc>
    <defs></defs>
    <g id="Symbols" stroke="none" stroke-width="1" fill="none" fill-rule="evenodd">
        <g id="报名查询new" transform="translate(-44.000000, -121.000000)" fill="#FFFFFF">
            <g id="Group-10-Copy-4">
                <path d="M53.2382967,129.986987 C51.1675951,129.986987 49.4889663,131.626501 49.4889663,133.648953 C49.4889663,135.671404 51.1675951,137.310918 53.2382967,137.310918 C55.3089984,137.310918 56.9876272,135.671404 56.9876272,133.648953 C56.9876272,131.626501 55.3089984,129.986987 53.2382967,129.986987 M59.9555437,140.209626 C59.7911087,140.369706 59.5763257,140.449746 59.3615426,140.449746 C59.1462239,140.449746 58.9314408,140.369706 58.7675415,140.209626 L56.3186931,137.817839 C55.4418854,138.438281 54.3674344,138.808662 53.2019282,138.808662 C50.2635244,138.808662 47.8821639,136.482791 47.8821639,133.613379 C47.8821639,130.743968 50.2635244,128.417573 53.2019282,128.417573 C56.1397965,128.417573 58.5211569,130.743968 58.5211569,133.613379 C58.5211569,134.751204 58.1419389,135.801142 57.5066952,136.657519 L59.9555437,139.049306 C60.2833423,139.369989 60.2833423,139.888942 59.9555437,140.209626 M63.0241028,126.185343 L58.8393144,121.986638 C58.2785217,121.424265 57.2490627,121 56.4450991,121 L45.8746652,121 C44.8409213,121 44,121.82185 44,122.830983 L44,143.169017 C44,144.178673 44.8409213,145 45.8746652,145 L62.1253348,145 C63.1585431,145 64,144.178673 64,143.169017 L64,128.529001 C64,127.751095 63.5806106,126.743532 63.0241028,126.185343" id="Fill-4"></path>
            </g>
        </g>
    </g>
</svg>