<svg id="_" data-name="ͼ" xmlns="http://www.w3.org/2000/svg" viewBox="0 0 231.33 110"><defs><style>.cls-1{fill:#00377b;}.cls-1,.cls-2,.cls-3,.cls-4,.cls-5{fill-rule:evenodd;}.cls-2{fill:#dab866;}.cls-3{fill:#eaf6fd;}.cls-4{fill:#9d1d22;}.cls-5,.cls-6{fill:#f3d4a1;}</style></defs><title>SIFC深圳国际学校logo1</title><path class="cls-1" d="M52.28,97.24c8-1,14.32-5.05,19.26-9C78.78,82.39,83,75.48,86.12,67.61A7.76,7.76,0,0,1,84,66c-.05-.1,0-.24.1-.17.94,1,3.84-4.41,3.86-4.43C89,62,93.13,65.88,93.3,67c-1.64,8.37-6.75,17.31-14.06,24.39S62.51,103.61,52.11,104.6a1.56,1.56,0,0,1-.3,0C31,102.63,13.87,83.67,10.59,67c.18-1.08,4.25-4.91,5.29-5.58,0,0,2.93,5.43,3.86,4.43.11-.07.16.07.1.17a7.76,7.76,0,0,1-2.07,1.64c3.12,7.87,7.34,14.78,14.58,20.61,4.91,4,11.18,8,19.16,9A2.65,2.65,0,0,0,52.28,97.24Z"/><path class="cls-1" d="M109.79,19.38a3.29,3.29,0,0,1-1,2.49,4.45,4.45,0,0,1-3.16,1,5.42,5.42,0,0,1-3.43-.84.49.49,0,0,1-.12-.37s0-.4,0-1.07,0-1,0-1.08,0-.12.13-.12h.39a.12.12,0,0,1,.13.12c0,.08,0,.27.06.58a2.21,2.21,0,0,0,.77,1.6,2.75,2.75,0,0,0,1,.5,3.73,3.73,0,0,0,1.13.2,2.64,2.64,0,0,0,2.57-1.21,3,3,0,0,0,.29-1.4,1.74,1.74,0,0,0-.55-1.29,5.82,5.82,0,0,0-2.15-1.12,8.27,8.27,0,0,1-2.47-1.18,2.92,2.92,0,0,1-1-2.42,3.24,3.24,0,0,1,1.33-2.62,4.09,4.09,0,0,1,2.66-.82,5.77,5.77,0,0,1,2,.35,3,3,0,0,1,.88.46.34.34,0,0,1,.15.25,13.17,13.17,0,0,1,.11,1.86c0,.13,0,.19-.06.19H109s-.08,0-.1-.11-.08-.41-.14-.69a1.31,1.31,0,0,0-.67-.91,4.64,4.64,0,0,0-2.24-.53,2.58,2.58,0,0,0-1.7.47,2.13,2.13,0,0,0-.58,1.71,1.82,1.82,0,0,0,.54,1.3,3.15,3.15,0,0,0,1,.58l1.25.48c.83.34,1.32.55,1.46.63a4.49,4.49,0,0,1,1.22.9,3,3,0,0,1,.74,2.1Zm11.4,3.35s0,.07-.1.07h-4c-.06,0-.1,0-.1-.09v-.26c0-.09,0-.13.1-.13H118c.09,0,.14-.08.16-.23a17.41,17.41,0,0,0,.12-2.16q0-.77,0-1.54t0-.72A2.91,2.91,0,0,0,117.9,16a1.68,1.68,0,0,0-1.45-.51,4.21,4.21,0,0,0-2.29.57.25.25,0,0,0-.12.24s0,.63,0,1.83,0,1.84,0,1.91c0,1.52.13,2.28.39,2.28h1.32c.05,0,.08,0,.08.07v.32s0,.07-.08.07h-4.39c-.07,0-.1,0-.1-.07v-.3c0-.07,0-.11.12-.11h1.16c.1,0,.14-.05.14-.16V12.06q0-2.13-.3-2.14h-1.31s0,0,0-.1V9.54a.13.13,0,0,1,0-.07s0,0,.1,0h.41a9.38,9.38,0,0,0,1.64-.24,8.41,8.41,0,0,1,.79-.28c.1,0,.15.1.15.3q0-.08-.09,2.65T114,15.47c0,.16,0,.22.12.17l.67-.44c.17-.12.41-.26.72-.45a4.36,4.36,0,0,1,1.78-.43,2.21,2.21,0,0,1,1.51.59,2.51,2.51,0,0,1,.75,2s0,.62,0,1.71,0,1.67,0,1.75q0,2,.26,2h1.32c.07,0,.1,0,.1.09v.32Zm8.59-1.16a.14.14,0,0,1,0,.06,4.1,4.1,0,0,1-.5.42,5.92,5.92,0,0,1-1,.49,5.37,5.37,0,0,1-2.11.41,3.78,3.78,0,0,1-2.7-.95,3.73,3.73,0,0,1-1.22-2.82,8.17,8.17,0,0,1,.14-1.74,4.22,4.22,0,0,1,1.19-2.14,3.42,3.42,0,0,1,2.43-.92,2.67,2.67,0,0,1,1.14.21,9.08,9.08,0,0,1,1.11.68,3.48,3.48,0,0,1,1.22,1.27.74.74,0,0,1,.08.28c0,.07-.06.12-.17.17a18.29,18.29,0,0,1-2.15.44,19.54,19.54,0,0,1-2.71.36h-.92c-.08,0-.12.14-.12.43a3.81,3.81,0,0,0,1.46,3.09,4.08,4.08,0,0,0,2.56.64,4.93,4.93,0,0,0,1.5-.19,1.5,1.5,0,0,0,.57-.27l.09,0s.06,0,.08.06l0,.07ZM128,16.7a.55.55,0,0,0-.1-.24,3.79,3.79,0,0,0-1-1.15,2.38,2.38,0,0,0-1.44-.46,1.54,1.54,0,0,0-1.17.7,3.86,3.86,0,0,0-.43.81,2.56,2.56,0,0,0-.25.91c0,.1,0,.14.12.14l1.66-.13a10.25,10.25,0,0,0,2.51-.43c.1,0,.15-.1.15-.17Zm12.8,6c0,.07,0,.11-.08.11h-4.07c-.07,0-.1,0-.1-.07v-.32c0-.06,0-.09.1-.09h1c.09,0,.14-.05.17-.16a40.14,40.14,0,0,0,.14-4.24,2.74,2.74,0,0,0-.5-2A2.21,2.21,0,0,0,136,15.5a3.84,3.84,0,0,0-2.13.55.27.27,0,0,0-.13.24q-.06.39-.06,4.13,0,1.91.3,1.91h1.32c.06,0,.1,0,.1.09v.32s0,.07-.1.07h-4.33l-.07,0s0,0,0-.09v-.3s0-.07.1-.07h1.22c.1,0,.14-.06.14-.17s0-1,0-2.91,0-2.91,0-3c0-.91-.1-1.36-.3-1.36h-1.16a.11.11,0,0,1-.12-.12v-.27a.07.07,0,0,1,.08-.08h1.24l.51,0,.42,0,.3,0,.28,0c.09,0,.14.07.14.21s0,.19,0,.48,0,.45,0,.49,0,.25.11.17a7.11,7.11,0,0,1,1.6-1,3.67,3.67,0,0,1,1.4-.3,2.42,2.42,0,0,1,1.72.64,3.38,3.38,0,0,1,.73,2.52q0,.61-.06,2.06c0,1-.06,1.45-.06,1.43,0,.89.07,1.33.2,1.33h1.32c.08,0,.12,0,.12.05v.3Zm9.68-1.16a3.48,3.48,0,0,1-.12.39,2.83,2.83,0,0,0-.11.39,2.31,2.31,0,0,1-.1.34.25.25,0,0,1-.22.15h-8c-.15,0-.23-.06-.23-.18a.58.58,0,0,1,.17-.32q.46-.54,3.12-2.85,2.22-1.91,3.14-2.91c.38-.41.57-.68.57-.8s-.11-.15-.32-.15H145.2a10.7,10.7,0,0,0-1.64.08,6.06,6.06,0,0,0-1.14.18.67.67,0,0,1-.3.15c-.07,0-.1,0-.1-.12,0,.09,0-.14.13-.69a3.91,3.91,0,0,1,.16-.68c0-.08.09-.12.21-.12l.31,0,.35,0,3,.07,3.09.07.51,0,.38,0c.1,0,.15,0,.15.13a.62.62,0,0,1-.13.28L149,16.28a37.92,37.92,0,0,1-3.42,3.27,21.75,21.75,0,0,0-1.75,1.63c-.19.19-.28.32-.28.37s.11.16.32.16h2.83a27.73,27.73,0,0,0,2.82-.11,3.54,3.54,0,0,0,.58-.12l.31-.09c.06,0,.1,0,.1.14Zm11.1,1.2s0,.07-.1.07h-4c-.06,0-.1,0-.1-.09v-.26c0-.09,0-.13.1-.13h.89c.09,0,.14-.08.16-.23a17.48,17.48,0,0,0,.11-2.16q0-.77,0-1.54t0-.72a2.91,2.91,0,0,0-.34-1.64,1.68,1.68,0,0,0-1.45-.51,4.21,4.21,0,0,0-2.29.57.25.25,0,0,0-.12.24s0,.63,0,1.83,0,1.84,0,1.91c0,1.52.13,2.28.39,2.28h1.32c.05,0,.08,0,.08.07v.32s0,.07-.08.07h-4.39c-.07,0-.1,0-.1-.07v-.3c0-.07,0-.11.12-.11h1.16c.1,0,.14-.05.14-.16V12.06q0-2.13-.3-2.14h-1.31s0,0,0-.1V9.54a.13.13,0,0,1,0-.07s0,0,.1,0H152a9.38,9.38,0,0,0,1.64-.24,8.41,8.41,0,0,1,.79-.28c.1,0,.15.1.15.3q0-.08-.09,2.65t-.09,3.59c0,.16,0,.22.12.17l.67-.44c.17-.12.41-.26.72-.45a4.36,4.36,0,0,1,1.78-.43,2.21,2.21,0,0,1,1.51.59,2.51,2.51,0,0,1,.75,2s0,.62,0,1.71,0,1.67,0,1.75q0,2,.26,2h1.32c.07,0,.1,0,.1.09v.32Zm8.59-1.16a.14.14,0,0,1,0,.06,4.1,4.1,0,0,1-.5.42,5.92,5.92,0,0,1-1,.49,5.37,5.37,0,0,1-2.11.41,3.78,3.78,0,0,1-2.7-.95,3.73,3.73,0,0,1-1.22-2.82,8.17,8.17,0,0,1,.14-1.74,4.22,4.22,0,0,1,1.19-2.14,3.42,3.42,0,0,1,2.43-.92,2.67,2.67,0,0,1,1.14.21,9,9,0,0,1,1.11.68,3.48,3.48,0,0,1,1.22,1.27.74.74,0,0,1,.08.28c0,.07-.06.12-.17.17a18.28,18.28,0,0,1-2.15.44,19.54,19.54,0,0,1-2.71.36H164c-.08,0-.12.14-.12.43a3.81,3.81,0,0,0,1.46,3.09,4.08,4.08,0,0,0,2.56.64,4.93,4.93,0,0,0,1.5-.19,1.5,1.5,0,0,0,.57-.27l.09,0s.06,0,.08.06l0,.07Zm-1.8-4.88a.56.56,0,0,0-.1-.24,3.79,3.79,0,0,0-1-1.15,2.38,2.38,0,0,0-1.44-.46,1.54,1.54,0,0,0-1.17.7,3.85,3.85,0,0,0-.43.81,2.56,2.56,0,0,0-.25.91c0,.1,0,.14.12.14l1.66-.13a10.24,10.24,0,0,0,2.51-.43c.1,0,.15-.1.15-.17Zm12.8,6c0,.07,0,.11-.08.11H177c-.07,0-.1,0-.1-.07v-.32c0-.06,0-.09.1-.09h1c.09,0,.14-.05.17-.16a40.17,40.17,0,0,0,.13-4.24,2.74,2.74,0,0,0-.5-2,2.21,2.21,0,0,0-1.52-.45,3.83,3.83,0,0,0-2.13.55.27.27,0,0,0-.13.24q-.06.39-.06,4.13,0,1.91.3,1.91h1.32c.06,0,.1,0,.1.09v.32s0,.07-.1.07h-4.33l-.07,0s0,0,0-.09v-.3s0-.07.1-.07h1.22c.1,0,.14-.06.14-.17s0-1,0-2.91,0-2.91,0-3c0-.91-.1-1.36-.3-1.36h-1.16a.1.1,0,0,1-.12-.12v-.27a.07.07,0,0,1,.08-.08h1.24l.51,0,.42,0,.3,0,.28,0c.09,0,.13.07.13.21s0,.19,0,.48,0,.45,0,.49,0,.25.12.17a7.11,7.11,0,0,1,1.6-1,3.66,3.66,0,0,1,1.4-.3,2.42,2.42,0,0,1,1.72.64,3.38,3.38,0,0,1,.73,2.52q0,.61-.06,2.06c0,1-.06,1.45-.06,1.43,0,.89.07,1.33.2,1.33H181c.08,0,.12,0,.12.05Z"/><path class="cls-1" d="M107.16,40.92s0,.07-.06.07h-4.87c-.06,0-.1,0-.11,0a.1.1,0,0,1,0-.06v-.29c0-.06,0-.09,0-.1h1.43c.09,0,.14-.09.14-.27l0-9.64q0-1.76-.35-1.76h-1.27c-.1,0-.14,0-.14-.1v-.32c0-.05,0-.08.1-.08h4.86c.06,0,.09,0,.09.08v.34c0,.05,0,.08-.11.08h-1.41c-.12,0-.18.06-.18.19q0,8.46,0,8.74,0,1.38,0,1.57c0,.77.18,1.16.4,1.16h1.41c.05,0,.08,0,.08.07v.35Zm11.83,0c0,.07,0,.11-.08.11h-4.23c-.07,0-.1,0-.1-.07v-.33c0-.06,0-.09.1-.09h1.07c.09,0,.15-.05.18-.16a40.37,40.37,0,0,0,.14-4.33,2.77,2.77,0,0,0-.52-2,2.33,2.33,0,0,0-1.58-.46,4,4,0,0,0-2.22.56.27.27,0,0,0-.14.24q-.06.4-.06,4.22,0,2,.31,1.95h1.38c.07,0,.1,0,.1.09v.33s0,.07-.1.07h-4.51l-.08,0s0,0,0-.09v-.31s0-.07.1-.07H110c.1,0,.15-.06.15-.18s0-1,0-3,0-3,0-3.07c0-.93-.1-1.39-.31-1.39H108.7a.11.11,0,0,1-.12-.12v-.28a.07.07,0,0,1,.08-.08H110l.53,0,.43,0,.31-.05.29,0c.09,0,.14.07.14.21s0,.19,0,.49,0,.46,0,.5,0,.25.12.17a7.45,7.45,0,0,1,1.67-1,3.87,3.87,0,0,1,1.46-.31,2.54,2.54,0,0,1,1.79.65,3.41,3.41,0,0,1,.76,2.57q0,.62-.07,2.11c0,1-.07,1.48-.07,1.46,0,.91.07,1.36.21,1.36h1.37c.08,0,.12,0,.12.05v.31Zm7.44-1a.28.28,0,0,1-.08.22,5.17,5.17,0,0,1-1.07.59,5.29,5.29,0,0,1-2.11.5q-2.1,0-2.1-2c0-.08,0-.77,0-2.07s0-2,0-2,0-.35,0-.81,0-.7,0-.72a.29.29,0,0,0-.19-.28l-.78-.32a.2.2,0,0,1-.12-.22.29.29,0,0,1,.15-.22l2.14-1.67a.52.52,0,0,1,.26-.1c.11,0,.14.09.1.27a6.22,6.22,0,0,0-.12,1.24c0,.21,0,.31.1.31l1.74-.05,1.69-.05c.14,0,.19.06.15.19a1.49,1.49,0,0,1-.15.53.18.18,0,0,1-.18.14h-3.25c-.08,0-.12,0-.12.09v5.17a2.16,2.16,0,0,0,.25,1.18c.18.28.68.42,1.51.42a5.44,5.44,0,0,0,1.61-.29l.43-.17c.07,0,.1.05.1.17Zm9.19-.13a.14.14,0,0,1,0,.06,4.3,4.3,0,0,1-.52.43,6.22,6.22,0,0,1-1,.5,5.67,5.67,0,0,1-2.19.42,4,4,0,0,1-2.81-1,3.78,3.78,0,0,1-1.27-2.88,8.24,8.24,0,0,1,.14-1.78,4.3,4.3,0,0,1,1.24-2.19,3.59,3.59,0,0,1,2.53-.94,2.82,2.82,0,0,1,1.18.21,9.5,9.5,0,0,1,1.15.69,3.58,3.58,0,0,1,1.27,1.29.74.74,0,0,1,.08.29c0,.07-.06.12-.18.17a19.27,19.27,0,0,1-2.24.45,20.71,20.71,0,0,1-2.82.37h-1c-.08,0-.12.14-.12.44a3.86,3.86,0,0,0,1.52,3.15,4.3,4.3,0,0,0,2.67.65,5.22,5.22,0,0,0,1.56-.2,1.57,1.57,0,0,0,.59-.28l.09,0a.09.09,0,0,1,.08.06l0,.07Zm-1.88-5a.56.56,0,0,0-.1-.24,3.9,3.9,0,0,0-1.08-1.17,2.51,2.51,0,0,0-1.5-.47,1.61,1.61,0,0,0-1.22.72,3.92,3.92,0,0,0-.45.83,2.58,2.58,0,0,0-.26.93c0,.1,0,.15.12.15l1.73-.13a10.83,10.83,0,0,0,2.61-.44c.11,0,.16-.1.16-.18Zm9.83-1.44a7.47,7.47,0,0,1-.31,1.16c0,.1-.08.15-.14.15a.23.23,0,0,1-.18-.09,2.06,2.06,0,0,0-.46-.48,1.66,1.66,0,0,0-1-.29,2.69,2.69,0,0,0-1.71.45.31.31,0,0,0-.1.25s0,.76,0,2.15,0,2.14,0,2.22c0,1.11.11,1.66.33,1.66h2a.11.11,0,0,1,.13.13v.27c0,.06,0,.09-.09.09h-5.14c-.09,0-.14,0-.14-.09v-.27c0-.09,0-.13.12-.13H138c.13,0,.19-.06.19-.18V34.2c0-.85-.11-1.28-.33-1.28h-1.24a.09.09,0,0,1-.1-.1v-.3a.09.09,0,0,1,.1-.1H138a4.43,4.43,0,0,0,.92-.06l.6-.15c.09,0,.14.09.14.25s0,.23,0,.56,0,.51,0,.54,0,.23.12.16l1.05-.82a2.55,2.55,0,0,1,1.43-.5,1.44,1.44,0,0,1,1.25.63.28.28,0,0,1,0,.27Zm11.31,7.58c0,.07,0,.11-.08.11h-4.23c-.07,0-.1,0-.1-.07v-.33c0-.06,0-.09.1-.09h1.07c.09,0,.15-.05.18-.16A40.37,40.37,0,0,0,152,36a2.76,2.76,0,0,0-.52-2,2.33,2.33,0,0,0-1.58-.46,4,4,0,0,0-2.22.56.27.27,0,0,0-.14.24q-.06.4-.06,4.22,0,2,.31,1.95h1.38c.07,0,.1,0,.1.09v.33s0,.07-.1.07h-4.51l-.08,0s0,0,0-.09v-.31s0-.07.1-.07h1.27c.1,0,.15-.06.15-.18s0-1,0-3,0-3,0-3.07c0-.93-.1-1.39-.31-1.39H144.6a.11.11,0,0,1-.12-.12v-.28a.07.07,0,0,1,.08-.08h1.29l.53,0,.43,0,.31-.05.29,0c.09,0,.14.07.14.21s0,.19,0,.49,0,.46,0,.5,0,.25.12.17a7.44,7.44,0,0,1,1.67-1,3.87,3.87,0,0,1,1.46-.31,2.54,2.54,0,0,1,1.79.65,3.41,3.41,0,0,1,.76,2.57q0,.62-.07,2.11c0,1-.06,1.48-.06,1.46,0,.91.07,1.36.21,1.36h1.37c.08,0,.12,0,.12.05v.31Zm9.29-.5a.28.28,0,0,1,0,.12,6.48,6.48,0,0,1-.82.68.33.33,0,0,1-.18.06,1.79,1.79,0,0,1-1.17-.51,3,3,0,0,1-.8-1.14c0-.11-.1-.13-.16,0a3.88,3.88,0,0,1-.56.54,4.2,4.2,0,0,1-.63.47,3.83,3.83,0,0,1-1.78.53,2.09,2.09,0,0,1-1.13-.24,1.31,1.31,0,0,1-.57-1.16,2.78,2.78,0,0,1,.62-1.72,3.28,3.28,0,0,1,1.38-1,12.76,12.76,0,0,1,2.71-.73c.06,0,.09-.08.1-.21a12.12,12.12,0,0,0,0-1.93,1,1,0,0,0-.46-.74,2.19,2.19,0,0,0-1.13-.24,3.17,3.17,0,0,0-1.44.23c-.16.11-.23.22-.2.33V34a1.2,1.2,0,0,1-.23.73,1,1,0,0,1-.84.52c-.23,0-.35-.14-.35-.43a1.58,1.58,0,0,1,.45-.91,3.55,3.55,0,0,1,1-.85,5.45,5.45,0,0,1,2.67-.55,2.43,2.43,0,0,1,1.62.44,1.74,1.74,0,0,1,.37,1.33q0,.73-.1,2.22c-.07,1-.1,1.55-.1,1.68a2.14,2.14,0,0,0,.51,1.49,2.31,2.31,0,0,0,1.15.6c.09,0,.14.08.14.11Zm-3.1-3.49c0-.12-.05-.18-.16-.18a4.58,4.58,0,0,0-1.74.4q-1.63.68-1.63,1.84a1.11,1.11,0,0,0,.37,1,1.66,1.66,0,0,0,1,.23,2.81,2.81,0,0,0,1.78-.73A.69.69,0,0,0,161,39a18.63,18.63,0,0,0,.12-2.06Zm10.66,3a.28.28,0,0,1-.08.22,5.16,5.16,0,0,1-1.07.59,5.29,5.29,0,0,1-2.11.5q-2.1,0-2.1-2c0-.08,0-.77,0-2.07s0-2,0-2,0-.35,0-.81,0-.7,0-.72a.29.29,0,0,0-.19-.28l-.78-.32a.2.2,0,0,1-.12-.22.29.29,0,0,1,.15-.22l2.14-1.67a.52.52,0,0,1,.26-.1c.11,0,.14.09.1.27a6.2,6.2,0,0,0-.12,1.24c0,.21,0,.31.1.31l1.74-.05,1.69-.05c.14,0,.19.06.15.19a1.49,1.49,0,0,1-.15.53.18.18,0,0,1-.18.14H168c-.08,0-.12,0-.12.09v5.17a2.16,2.16,0,0,0,.25,1.18c.18.28.68.42,1.51.42a5.44,5.44,0,0,0,1.61-.29l.43-.17c.07,0,.1.05.1.17Zm4.36-10.76a1.11,1.11,0,0,1-.48.87,1.29,1.29,0,0,1-.77.33c-.44,0-.66-.2-.66-.61a1.12,1.12,0,0,1,.33-.73,1.28,1.28,0,0,1,1-.45.52.52,0,0,1,.6.59Zm1.66,11.8c0,.06,0,.09-.12.09h-4.77c-.07,0-.1,0-.1-.11v-.29c0-.09,0-.13.08-.13h1.46a.17.17,0,0,0,.19-.2s0-.79,0-2.26,0-2.28,0-2.44c0-1,0-1.55,0-1.74-.08-.58-.26-.87-.54-.87h-1c-.11,0-.16,0-.16-.1v-.32c0-.08,0-.12.1-.12h.59q.93,0,1.79-.08l.59-.05c.15,0,.23.1.23.29T176,35.35c0,1.83-.08,2.79-.08,2.88q0,2.24.49,2.24h1.21c.07,0,.1,0,.1.09v.35Zm10-4.22a5.17,5.17,0,0,1-.43,2.16,3.86,3.86,0,0,1-1.82,1.79,4.55,4.55,0,0,1-2.12.47,5.87,5.87,0,0,1-1.94-.22,3.56,3.56,0,0,1-1.84-1.66,5.15,5.15,0,0,1-.62-2.46,4.76,4.76,0,0,1,.67-2.53,4,4,0,0,1,1.73-1.51,6,6,0,0,1,2.44-.4,4,4,0,0,1,2,.44,3.49,3.49,0,0,1,1.46,1.64,5.64,5.64,0,0,1,.43,2.29Zm-1.41.45a4.34,4.34,0,0,0-1-3A3.4,3.4,0,0,0,182.74,33a3.45,3.45,0,0,0-1.16.13,1.31,1.31,0,0,0-.48.44,4,4,0,0,0-.59,2.39,7.12,7.12,0,0,0,.63,3,2.88,2.88,0,0,0,1.17,1.35,2.85,2.85,0,0,0,1.42.36,3,3,0,0,0,1.4-.26,2.34,2.34,0,0,0,1-1.25,5.46,5.46,0,0,0,.29-2Zm13.21,3.75c0,.07,0,.11-.08.11h-4.23c-.07,0-.1,0-.1-.07v-.33c0-.06,0-.09.1-.09h1.07c.09,0,.15-.05.18-.16a40.25,40.25,0,0,0,.14-4.33,2.76,2.76,0,0,0-.52-2,2.33,2.33,0,0,0-1.58-.46,4,4,0,0,0-2.22.56.27.27,0,0,0-.14.24c0,.27-.06,1.68-.06,4.22q0,2,.31,1.95h1.38c.07,0,.1,0,.1.09v.33s0,.07-.1.07h-4.51l-.08,0s0,0,0-.09v-.31s0-.07.1-.07h1.27c.1,0,.15-.06.15-.18s0-1,0-3,0-3,0-3.07c0-.93-.1-1.39-.31-1.39H189.3a.11.11,0,0,1-.12-.12v-.28a.07.07,0,0,1,.08-.08h1.29l.53,0,.43,0,.31-.05.29,0c.09,0,.14.07.14.21s0,.19,0,.49,0,.46,0,.5,0,.25.12.17a7.44,7.44,0,0,1,1.67-1,3.87,3.87,0,0,1,1.46-.31,2.54,2.54,0,0,1,1.79.65,3.41,3.41,0,0,1,.76,2.57c0,.42,0,1.12-.06,2.11s-.06,1.48-.06,1.46c0,.91.07,1.36.21,1.36h1.37c.08,0,.12,0,.12.05v.31Zm9.29-.5a.28.28,0,0,1,0,.12,6.44,6.44,0,0,1-.82.68.33.33,0,0,1-.18.06,1.79,1.79,0,0,1-1.17-.51,3,3,0,0,1-.8-1.14c0-.11-.1-.13-.16,0a3.86,3.86,0,0,1-.56.54,4.19,4.19,0,0,1-.63.47,3.83,3.83,0,0,1-1.78.53,2.09,2.09,0,0,1-1.13-.24A1.31,1.31,0,0,1,201,39.7a2.78,2.78,0,0,1,.62-1.72A3.28,3.28,0,0,1,203,37a12.76,12.76,0,0,1,2.71-.73c.06,0,.09-.08.1-.21a12.12,12.12,0,0,0,0-1.93,1,1,0,0,0-.46-.74,2.19,2.19,0,0,0-1.13-.24,3.17,3.17,0,0,0-1.44.23c-.16.11-.23.22-.2.33V34a1.2,1.2,0,0,1-.23.73,1,1,0,0,1-.84.52c-.23,0-.35-.14-.35-.43a1.58,1.58,0,0,1,.45-.91,3.56,3.56,0,0,1,1-.85,5.45,5.45,0,0,1,2.67-.55,2.43,2.43,0,0,1,1.62.44,1.74,1.74,0,0,1,.37,1.33c0,.49,0,1.23-.1,2.22s-.1,1.55-.1,1.68a2.14,2.14,0,0,0,.51,1.49,2.31,2.31,0,0,0,1.15.6c.09,0,.14.08.14.11Zm-3.1-3.49c0-.12-.05-.18-.16-.18a4.59,4.59,0,0,0-1.74.4q-1.63.68-1.63,1.84a1.11,1.11,0,0,0,.37,1,1.66,1.66,0,0,0,1,.23,2.81,2.81,0,0,0,1.78-.73.69.69,0,0,0,.27-.48,18.71,18.71,0,0,0,.12-2.06Zm9.11,4s0,.07-.11.07h-5c-.09,0-.13,0-.13-.09v-.33a.1.1,0,0,1,.11-.11h1.64a.19.19,0,0,0,.21-.21V29.91q0-2.07-.39-2.07H210c-.08,0-.12,0-.12-.11v-.31c0-.09,0-.13.08-.13h.78a6.23,6.23,0,0,0,1.48-.19c.52-.13.74-.19.67-.19.12,0,.18.09.18.27T213,32.7q-.06,5.5-.06,5.69,0,2.07.37,2.07h1.46c.08,0,.11,0,.11.09Z"/><path class="cls-1" d="M112.08,47.24a3.32,3.32,0,0,0-.16.55c-.06.23-.14.52-.23.87,0,.09-.05.13-.12.13a.15.15,0,0,1-.12-.09,1.76,1.76,0,0,0-.3-.36A2,2,0,0,0,110,48l-2.36-.11-2.31-.11c-.08,0-.12,0-.12.09a39.5,39.5,0,0,0-.12,4.47c0,.17.07.25.2.25h4.91c.11,0,.17,0,.18-.09,0-.35.07-.74.12-1.17a.13.13,0,0,1,.15-.12h.18c.06,0,.1,0,.1.14s0,.29,0,.81,0,.82,0,.91,0,.41,0,1,0,.87,0,.91,0,.25-.12.25h-.21s-.08,0-.1-.12,0-.29,0-.79,0-.75,0-.78,0-.1-.14-.11q-.61-.09-5-.09a.14.14,0,0,0-.16.13v3.32q0,2.43.52,2.43h2c.06,0,.09,0,.09.07v.31a.1.1,0,0,1-.11.11h-5.34c-.07,0-.11,0-.11-.09v-.27c0-.09,0-.13.11-.13h1.21a.16.16,0,0,0,.18-.17q0-.17,0-6.08V49.7c0-1.39-.11-2.08-.35-2.08h-1.25c-.08,0-.12,0-.12-.08v-.32a.09.09,0,0,1,.1-.09h3.21l2.85,0,2.84,0,.58,0,.39,0c.09,0,.14,0,.14.11Zm10,8.13a5.13,5.13,0,0,1-.42,2.13,3.8,3.8,0,0,1-1.79,1.77,4.45,4.45,0,0,1-2.08.47,5.75,5.75,0,0,1-1.9-.22,3.51,3.51,0,0,1-1.81-1.64,5.11,5.11,0,0,1-.61-2.44,4.73,4.73,0,0,1,.66-2.51,3.89,3.89,0,0,1,1.7-1.49,5.88,5.88,0,0,1,2.4-.39,4,4,0,0,1,2,.43,3.44,3.44,0,0,1,1.43,1.62,5.6,5.6,0,0,1,.42,2.27Zm-1.39.45a4.3,4.3,0,0,0-1-3,3.33,3.33,0,0,0-2.6-1.12,3.38,3.38,0,0,0-1.14.13,1.3,1.3,0,0,0-.47.43,4,4,0,0,0-.58,2.36,7.07,7.07,0,0,0,.62,3A2.84,2.84,0,0,0,116.68,59a2.79,2.79,0,0,0,1.4.36,3,3,0,0,0,1.37-.26,2.31,2.31,0,0,0,.95-1.23,5.42,5.42,0,0,0,.29-2ZM133,59.26a.15.15,0,0,1-.09.13l-.62.25-.3.19a.24.24,0,0,1-.18.06l-.27-.14a2.28,2.28,0,0,1-.85-1.37c0-.11-.1-.12-.2,0a19.78,19.78,0,0,1-1.82,1.07,4.46,4.46,0,0,1-2,.34,1.58,1.58,0,0,1-1.31-.65,2.32,2.32,0,0,1-.46-1.44V54q0-2.32-.4-2.32h-1.17c-.09,0-.14,0-.14-.09v-.3c0-.06,0-.09.08-.09h1.21l.49,0,.53,0,.64-.08c.11,0,.16.09.16.25t0,2.82q0,2.79,0,3a1.47,1.47,0,0,0,.41,1.2,1.91,1.91,0,0,0,1.2.29,8.07,8.07,0,0,0,2.67-.75c.07,0,.1-.05.1-.16V53q0-1.28-.4-1.28H129c-.08,0-.12,0-.12-.09v-.3c0-.06,0-.09.08-.09h1.27a7.31,7.31,0,0,0,1-.06l.59-.08c.09,0,.14.09.14.27t0,2.9q0,2.86,0,3a2,2,0,0,0,.91,1.83c.09,0,.13.09.13.15Zm11.7.27c0,.07,0,.11-.08.11h-4.16c-.07,0-.1,0-.1-.07v-.32c0-.06,0-.09.1-.09h1.05c.09,0,.14-.05.18-.16a40.14,40.14,0,0,0,.14-4.28,2.74,2.74,0,0,0-.51-2,2.28,2.28,0,0,0-1.55-.45,4,4,0,0,0-2.18.55.27.27,0,0,0-.14.24q-.06.4-.06,4.17,0,1.93.3,1.93H139c.06,0,.1,0,.1.09v.32s0,.07-.1.07h-4.43l-.07,0s0,0,0-.09v-.31s0-.07.1-.07h1.25c.1,0,.15-.06.15-.18s0-1,0-2.94,0-2.94,0-3c0-.91-.1-1.37-.31-1.37h-1.19a.11.11,0,0,1-.12-.12v-.28a.07.07,0,0,1,.08-.08h1.27l.52,0,.43,0,.31-.05.29,0c.09,0,.14.07.14.21s0,.19,0,.48,0,.45,0,.5,0,.25.12.17a7.3,7.3,0,0,1,1.64-1,3.78,3.78,0,0,1,1.44-.3,2.49,2.49,0,0,1,1.76.64,3.39,3.39,0,0,1,.75,2.54q0,.62-.06,2.08c0,1-.06,1.46-.06,1.44,0,.9.07,1.35.21,1.35h1.35c.08,0,.12,0,.12.05v.31Zm11.38-1c0,.11,0,.18-.08.2-.52.16-1.24.43-2.17.83a5.27,5.27,0,0,0-.78.36c-.1,0-.15-.07-.15-.21s0-.19,0-.41,0-.36,0-.41a3.63,3.63,0,0,0,0-.56c0-.1-.1-.13-.22-.08l-1.37.95a4.08,4.08,0,0,1-2.19.54,2.84,2.84,0,0,1-2.72-1.69,5.84,5.84,0,0,1-.56-2.52,4.41,4.41,0,0,1,1.22-3.4,3.86,3.86,0,0,1,2.73-1,4.94,4.94,0,0,1,1.59.23,10.65,10.65,0,0,1,1.24.58c.09.05.14,0,.14-.17s0-.64,0-1.74,0-1.69,0-1.79q0-1.63-.38-1.63H151c-.07,0-.11,0-.11-.11v-.24c0-.09,0-.14.11-.14h.46a5.86,5.86,0,0,0,2.12-.32l.55-.2c.08,0,.12.08.12.24s0,.41,0,1.18,0,1.22,0,1.36V57q0,1.83.38,1.72c.47-.14.8-.25,1-.32a1.84,1.84,0,0,1,.42-.13c.07,0,.1.08.1.24Zm-3.18-1.22c0,.05,0-.26,0-1s0-1.3,0-1.84a9.31,9.31,0,0,0-.16-1.92.57.57,0,0,0-.3-.38,5.4,5.4,0,0,0-2.43-.52,2.68,2.68,0,0,0-2.08.76,3.91,3.91,0,0,0-.87,2.73,4.25,4.25,0,0,0,.29,1.47,3.26,3.26,0,0,0,.5,1,2.74,2.74,0,0,0,.91.74,3.64,3.64,0,0,0,1.4.21,4.54,4.54,0,0,0,2.62-.85c.09-.06.14-.2.14-.43Zm12,1.69a.28.28,0,0,1,0,.12,6.34,6.34,0,0,1-.81.67.33.33,0,0,1-.18.06,1.75,1.75,0,0,1-1.15-.51,2.93,2.93,0,0,1-.79-1.12c0-.11-.09-.13-.16,0a3.79,3.79,0,0,1-.55.53,4.12,4.12,0,0,1-.62.47,3.74,3.74,0,0,1-1.75.52,2,2,0,0,1-1.11-.24,1.3,1.3,0,0,1-.56-1.15,2.76,2.76,0,0,1,.61-1.7,3.22,3.22,0,0,1,1.35-1,12.46,12.46,0,0,1,2.66-.72c.06,0,.09-.08.1-.2a12.15,12.15,0,0,0,0-1.91.94.94,0,0,0-.45-.73,2.14,2.14,0,0,0-1.11-.24,3.1,3.1,0,0,0-1.42.23c-.16.11-.22.21-.2.32v.26a1.19,1.19,0,0,1-.23.72,1,1,0,0,1-.83.52c-.23,0-.34-.14-.34-.42a1.56,1.56,0,0,1,.44-.9,3.5,3.5,0,0,1,1-.84,5.33,5.33,0,0,1,2.62-.54,2.38,2.38,0,0,1,1.59.43,1.73,1.73,0,0,1,.37,1.32q0,.73-.09,2.19c-.06,1-.09,1.53-.09,1.66a2.12,2.12,0,0,0,.5,1.47,2.27,2.27,0,0,0,1.13.6c.09,0,.14.08.14.11Zm-3-3.45c0-.12-.05-.18-.16-.18a4.48,4.48,0,0,0-1.71.4q-1.6.67-1.6,1.81a1.1,1.1,0,0,0,.36,1,1.62,1.62,0,0,0,1,.23,2.75,2.75,0,0,0,1.75-.72.69.69,0,0,0,.27-.47,18.52,18.52,0,0,0,.12-2Zm10.48,2.94a.27.27,0,0,1-.08.21,5.09,5.09,0,0,1-1.05.58,5.18,5.18,0,0,1-2.07.49q-2.06,0-2.06-2c0-.08,0-.76,0-2s0-2,0-2,0-.35,0-.8,0-.69,0-.71A.29.29,0,0,0,167,52l-.77-.32a.2.2,0,0,1-.12-.21.28.28,0,0,1,.15-.22l2.1-1.65a.51.51,0,0,1,.26-.09c.1,0,.14.09.1.27a6.14,6.14,0,0,0-.12,1.23c0,.2,0,.3.1.3l1.71-.05,1.67-.05c.14,0,.19.06.15.19a1.48,1.48,0,0,1-.15.52.18.18,0,0,1-.18.14h-3.19c-.08,0-.12,0-.12.09v5.11a2.15,2.15,0,0,0,.25,1.17c.18.28.67.41,1.49.41a5.31,5.31,0,0,0,1.58-.29l.42-.16c.07,0,.1.05.1.16Zm4.29-10.63a1.1,1.1,0,0,1-.47.86,1.26,1.26,0,0,1-.76.32c-.43,0-.65-.2-.65-.6a1.11,1.11,0,0,1,.32-.73,1.25,1.25,0,0,1,1-.44.52.52,0,0,1,.59.58Zm1.63,11.66c0,.06,0,.09-.12.09h-4.68c-.07,0-.1,0-.1-.11v-.29c0-.09,0-.13.08-.13h1.43a.17.17,0,0,0,.19-.19s0-.78,0-2.23,0-2.25,0-2.41c0-1,0-1.53,0-1.72-.07-.57-.25-.85-.54-.85h-1c-.1,0-.15,0-.15-.09v-.32c0-.08,0-.12.1-.12h.58c.61,0,1.2,0,1.76-.08l.58-.05c.15,0,.23.09.23.28t-.07,2.74c0,1.81-.07,2.76-.07,2.84q0,2.21.48,2.21h1.19c.07,0,.1,0,.1.09v.34Zm9.86-4.17a5.13,5.13,0,0,1-.42,2.13,3.8,3.8,0,0,1-1.79,1.77,4.45,4.45,0,0,1-2.08.47,5.75,5.75,0,0,1-1.9-.22,3.51,3.51,0,0,1-1.81-1.64,5.11,5.11,0,0,1-.61-2.44,4.73,4.73,0,0,1,.66-2.51,3.89,3.89,0,0,1,1.7-1.49,5.88,5.88,0,0,1,2.4-.39,4,4,0,0,1,2,.43,3.44,3.44,0,0,1,1.43,1.62,5.6,5.6,0,0,1,.42,2.27Zm-1.39.45a4.3,4.3,0,0,0-1-3,3.33,3.33,0,0,0-2.6-1.12,3.38,3.38,0,0,0-1.14.13,1.3,1.3,0,0,0-.47.43,4,4,0,0,0-.58,2.36,7.07,7.07,0,0,0,.62,3A2.84,2.84,0,0,0,182.74,59a2.79,2.79,0,0,0,1.4.36,3,3,0,0,0,1.37-.26,2.31,2.31,0,0,0,.95-1.23,5.42,5.42,0,0,0,.29-2Zm13,3.7c0,.07,0,.11-.08.11h-4.16c-.07,0-.1,0-.1-.07v-.32c0-.06,0-.09.1-.09h1.05c.09,0,.14-.05.18-.16a40.13,40.13,0,0,0,.14-4.28,2.74,2.74,0,0,0-.51-2,2.28,2.28,0,0,0-1.55-.45,4,4,0,0,0-2.18.55.27.27,0,0,0-.14.24c0,.26-.06,1.66-.06,4.17q0,1.93.3,1.93h1.35c.06,0,.1,0,.1.09v.32s0,.07-.1.07h-4.43l-.07,0s0,0,0-.09v-.31s0-.07.1-.07h1.25c.1,0,.15-.06.15-.18s0-1,0-2.94,0-2.94,0-3c0-.91-.1-1.37-.31-1.37h-1.19a.11.11,0,0,1-.12-.12v-.28a.07.07,0,0,1,.08-.08h1.27l.52,0,.43,0,.31-.05.29,0c.09,0,.14.07.14.21s0,.19,0,.48,0,.45,0,.5,0,.25.12.17a7.3,7.3,0,0,1,1.64-1,3.79,3.79,0,0,1,1.44-.3,2.49,2.49,0,0,1,1.76.64,3.39,3.39,0,0,1,.75,2.54c0,.41,0,1.11-.06,2.08s-.06,1.46-.06,1.44c0,.9.07,1.35.21,1.35h1.35c.08,0,.12,0,.12.05Z"/><path class="cls-1" d="M114.44,77.34a.13.13,0,0,1,0,.16A6.3,6.3,0,0,1,112,78.81a10.73,10.73,0,0,1-3.36.45,9.27,9.27,0,0,1-2.72-.32,5.51,5.51,0,0,1-2-1.22,5.72,5.72,0,0,1-1.61-4.45,6.81,6.81,0,0,1,.92-3.33,6.18,6.18,0,0,1,2.27-2.27,9.71,9.71,0,0,1,5.1-1.2q1.17,0,2.13.09a5,5,0,0,1,1.43.27s.06,0,.06.09,0,.35-.1.77-.07.63-.1.88c0,.07,0,.11-.08.11a.09.09,0,0,1-.1-.08,1,1,0,0,0-.11-.26,2.93,2.93,0,0,0-.82-.63,7.52,7.52,0,0,0-3.08-.49,5.75,5.75,0,0,0-4.17,1.5A5.67,5.67,0,0,0,103.89,73a5.46,5.46,0,0,0,1.85,4.38,5.24,5.24,0,0,0,1.88,1.08,8.36,8.36,0,0,0,2.3.26,5.13,5.13,0,0,0,2.07-.44,3.39,3.39,0,0,0,1.49-1.14,2,2,0,0,0,.34-.77c0-.11,0-.16.06-.16s0,0,.07.08a2.27,2.27,0,0,0,.22.58c.06.14.15.31.27.5Zm9.9-2.63a5.12,5.12,0,0,1-.42,2.13,3.79,3.79,0,0,1-1.79,1.76,4.43,4.43,0,0,1-2.07.47,5.72,5.72,0,0,1-1.9-.22,3.49,3.49,0,0,1-1.8-1.64,5.09,5.09,0,0,1-.61-2.43,4.71,4.71,0,0,1,.66-2.5,3.88,3.88,0,0,1,1.69-1.49,5.87,5.87,0,0,1,2.39-.39,3.94,3.94,0,0,1,2,.43,3.43,3.43,0,0,1,1.43,1.62,5.59,5.59,0,0,1,.42,2.26Zm-1.38.45a4.29,4.29,0,0,0-1-3,3.32,3.32,0,0,0-2.6-1.11,3.36,3.36,0,0,0-1.14.13,1.29,1.29,0,0,0-.47.43,4,4,0,0,0-.58,2.35,7,7,0,0,0,.62,3A2.83,2.83,0,0,0,119,78.28a2.78,2.78,0,0,0,1.4.36,3,3,0,0,0,1.37-.26,2.3,2.3,0,0,0,.94-1.23,5.4,5.4,0,0,0,.29-2Zm7,3.73s0,.07-.11.07H125c-.08,0-.13,0-.13-.09v-.32a.1.1,0,0,1,.11-.11h1.6a.18.18,0,0,0,.2-.21V68q0-2-.38-2h-1.21c-.08,0-.12,0-.12-.11v-.3c0-.08,0-.13.08-.13h.77a6.07,6.07,0,0,0,1.45-.19c.51-.13.73-.19.66-.19.12,0,.18.09.18.27t-.06,5.45q-.06,5.41-.06,5.61,0,2,.36,2h1.43c.07,0,.11,0,.11.09v.36Zm5.76,0s0,.07-.11.07h-4.88c-.08,0-.13,0-.13-.09v-.32a.1.1,0,0,1,.11-.11h1.6c.14,0,.2-.07.2-.21V68q0-2-.38-2h-1.21c-.08,0-.12,0-.12-.11v-.3c0-.08,0-.13.08-.13h.77a6.08,6.08,0,0,0,1.45-.19c.51-.13.73-.19.66-.19.12,0,.18.09.18.27t-.06,5.45q-.06,5.41-.06,5.61,0,2,.36,2h1.43c.07,0,.11,0,.11.09v.36Zm8.41-1.17a.14.14,0,0,1,0,.06,4.21,4.21,0,0,1-.51.42,6.09,6.09,0,0,1-1,.5,5.53,5.53,0,0,1-2.15.41,3.88,3.88,0,0,1-2.75-1,3.74,3.74,0,0,1-1.25-2.84,8.14,8.14,0,0,1,.14-1.75,4.24,4.24,0,0,1,1.21-2.16,3.51,3.51,0,0,1,2.48-.93,2.75,2.75,0,0,1,1.16.21,9.27,9.27,0,0,1,1.13.68,3.52,3.52,0,0,1,1.25,1.27.73.73,0,0,1,.08.29c0,.07-.06.12-.18.17a18.83,18.83,0,0,1-2.19.45,20.19,20.19,0,0,1-2.76.36h-.94c-.08,0-.12.14-.12.43a3.81,3.81,0,0,0,1.49,3.1,4.2,4.2,0,0,0,2.61.64,5.09,5.09,0,0,0,1.53-.19,1.54,1.54,0,0,0,.58-.28l.09,0s.06,0,.08.06l0,.07Zm-1.84-4.91a.55.55,0,0,0-.1-.24,3.83,3.83,0,0,0-1.06-1.16,2.45,2.45,0,0,0-1.47-.46,1.57,1.57,0,0,0-1.19.71,3.86,3.86,0,0,0-.44.82,2.55,2.55,0,0,0-.25.92c0,.1,0,.14.12.14l1.69-.13a10.55,10.55,0,0,0,2.56-.43c.1,0,.16-.1.16-.18Zm11.84,7.79a2.66,2.66,0,0,1-1.12,2,6.43,6.43,0,0,1-4.23,1.17,4.83,4.83,0,0,1-2.94-.75,1.79,1.79,0,0,1-.83-1.44,2.42,2.42,0,0,1,.83-1.72,4.5,4.5,0,0,1,1.41-.7c.18-.11.18-.17,0-.19a5.15,5.15,0,0,1-.82-.25.8.8,0,0,1-.48-.75,1.06,1.06,0,0,1,.44-.86l.88-.59c.09-.07,0-.14-.12-.23a4,4,0,0,1-.87-.62,2.57,2.57,0,0,1-.76-2,3.07,3.07,0,0,1,.93-2.28,3.57,3.57,0,0,1,2.63-.92,10.19,10.19,0,0,1,1.77.14,11.63,11.63,0,0,0,1.74.09,2.87,2.87,0,0,0,1-.13l.2-.08.14-.06c.07,0,.1.07.1.21a1.28,1.28,0,0,1-.35.83.78.78,0,0,1-.5.11,10.75,10.75,0,0,1-1.15-.09c-.22,0-.34,0-.34.05a.23.23,0,0,0,.08.15,2.64,2.64,0,0,1,.72,1.81,3,3,0,0,1-1,2.24,3.68,3.68,0,0,1-2.6,1,3.57,3.57,0,0,1-.93-.11.25.25,0,0,0-.22,0l-.48.25a.54.54,0,0,0-.31.44.45.45,0,0,0,.23.44,1.85,1.85,0,0,0,.58.12,12.21,12.21,0,0,0,1.27.07q3.21,0,4.34,1a2.17,2.17,0,0,1,.76,1.74Zm-3-6.65a2.83,2.83,0,0,0-.71-2.1,2.59,2.59,0,0,0-1.87-.81,1.54,1.54,0,0,0-1.32.47,2.57,2.57,0,0,0-.42,1.52,3.86,3.86,0,0,0,.42,1.92,2.2,2.2,0,0,0,2,1.2,1.68,1.68,0,0,0,1.36-.52,2.57,2.57,0,0,0,.5-1.68Zm1.94,7.15a1.18,1.18,0,0,0-.23-.66,1.75,1.75,0,0,0-.86-.67,8.36,8.36,0,0,0-3-.49,3.22,3.22,0,0,0-2.23.65A2.07,2.07,0,0,0,146,81.5a1.37,1.37,0,0,0,.77,1.21,4.86,4.86,0,0,0,2.56.57,4.53,4.53,0,0,0,2.73-.7,3.63,3.63,0,0,0,.76-.67,1.32,1.32,0,0,0,.23-.81ZM163,77.72a.14.14,0,0,1,0,.06,4.16,4.16,0,0,1-.51.42,6.07,6.07,0,0,1-1,.5,5.53,5.53,0,0,1-2.15.41,3.88,3.88,0,0,1-2.75-1,3.74,3.74,0,0,1-1.25-2.84,8.14,8.14,0,0,1,.14-1.75,4.24,4.24,0,0,1,1.21-2.16,3.51,3.51,0,0,1,2.47-.93,2.75,2.75,0,0,1,1.16.21,9.27,9.27,0,0,1,1.13.68,3.52,3.52,0,0,1,1.25,1.27.73.73,0,0,1,.08.29c0,.07-.06.12-.18.17a18.86,18.86,0,0,1-2.19.45,20.18,20.18,0,0,1-2.76.36h-.94c-.08,0-.12.14-.12.43a3.82,3.82,0,0,0,1.49,3.1,4.2,4.2,0,0,0,2.61.64,5.09,5.09,0,0,0,1.53-.19,1.54,1.54,0,0,0,.58-.28l.09,0s.06,0,.08.06l0,.07Zm-1.84-4.91a.55.55,0,0,0-.1-.24A3.83,3.83,0,0,0,160,71.42a2.45,2.45,0,0,0-1.47-.46,1.57,1.57,0,0,0-1.19.71,3.84,3.84,0,0,0-.44.82,2.55,2.55,0,0,0-.26.92c0,.1,0,.14.12.14l1.69-.13A10.55,10.55,0,0,0,161,73C161.1,72.94,161.16,72.89,161.16,72.81Z"/><path class="cls-1" d="M93.37,44.37c-.13,0-2,2.4-2.68,2.44s-2.59-5.23-3.05-5.27.68,6.32-.29,12.48c-1,8-3,9.56-3.29,10.83,0,.14.17.41.57.24,1.23-.94,2.23-3,3.27-4.72a22.33,22.33,0,0,1,3.45,3c.16.17.26.45.51.26C93.73,62.2,94.07,44.39,93.37,44.37Z"/><path class="cls-1" d="M10.51,44.37c.13,0,2,2.4,2.68,2.44s2.59-5.23,3.05-5.27-.68,6.32.29,12.48c1,8,3,9.56,3.29,10.83,0,.14-.17.41-.57.24C18,64.15,17,62,16,60.37a22.33,22.33,0,0,0-3.45,3c-.16.17-.26.45-.51.26C10.15,62.2,9.82,44.39,10.51,44.37Z"/><path class="cls-1" d="M52,12.1c18.94,0,25.74.22,31.86-3.54V54.63C82.6,72.93,72.29,87,54.64,93a13.89,13.89,0,0,1-2.68.81A13.89,13.89,0,0,1,49.27,93C31.62,87,21.31,72.93,20.09,54.63V8.56C26.21,12.32,33,12.1,52,12.1Z"/><path class="cls-2" d="M52,11.66h3c16.59,0,22.95,0,28.63-3.48l.67-.41V54.66a44.24,44.24,0,0,1-8.62,24.16A43.35,43.35,0,0,1,54.78,93.47l-.61.22A9.4,9.4,0,0,1,52,94.3h-.05a9.4,9.4,0,0,1-2.19-.62l-.61-.22A43.35,43.35,0,0,1,28.27,78.83a44.24,44.24,0,0,1-8.62-24.16V7.78l.67.41c5.69,3.49,12,3.49,28.63,3.48Zm3,.88h-6c-16.14,0-22.7,0-28.42-3.21v45.3A43.37,43.37,0,0,0,29,78.3,42.49,42.49,0,0,0,49.41,92.63l.62.22a9.46,9.46,0,0,0,1.92.57,9.46,9.46,0,0,0,1.92-.57l.62-.22A42.49,42.49,0,0,0,74.93,78.3a43.37,43.37,0,0,0,8.44-23.67V9.33C77.65,12.55,71.09,12.55,55,12.54Z"/><path class="cls-2" d="M52,90a12.7,12.7,0,0,1-2.44-.74C33.48,83.72,24.11,71,23,54.33c-.24,0-.14-21.09-.06-33.32H81c.08,12.24.18,33.32-.06,33.32C79.79,71,70.42,83.72,54.39,89.23A12.66,12.66,0,0,1,52,90Z"/><path class="cls-3" d="M60.16,19.06v-.32l.39-.39a10.53,10.53,0,0,0,1.08-1.13,1.48,1.48,0,0,0,.35-.88.67.67,0,0,0-.76-.76,1.21,1.21,0,0,0-.81.35l-.16-.37a1.62,1.62,0,0,1,1.08-.39,1.17,1.17,0,0,1,.9.35,1.07,1.07,0,0,1,.28.76,1.79,1.79,0,0,1-.37,1,6.46,6.46,0,0,1-1,1.06l-.3.28H62.6v.44Zm4.39-3.89a1.08,1.08,0,0,1,.94.51,2.66,2.66,0,0,1,.32,1.43,2.74,2.74,0,0,1-.34,1.5,1.11,1.11,0,0,1-1,.53,1,1,0,0,1-.9-.51,2.56,2.56,0,0,1-.37-1.47,2.44,2.44,0,0,1,.39-1.47,1.09,1.09,0,0,1,.94-.51Zm0,.39A.64.64,0,0,0,64,16a2.84,2.84,0,0,0-.21,1.2A2.61,2.61,0,0,0,64,18.32a.63.63,0,0,0,.58.39q.78,0,.78-1.59t-.78-1.57Zm3.13-.39a1.08,1.08,0,0,1,.95.51,2.66,2.66,0,0,1,.32,1.43,2.74,2.74,0,0,1-.34,1.5,1.11,1.11,0,0,1-1,.53,1,1,0,0,1-.9-.51,2.56,2.56,0,0,1-.37-1.47,2.44,2.44,0,0,1,.39-1.47,1.09,1.09,0,0,1,.94-.51Zm0,.39a.64.64,0,0,0-.58.41,2.84,2.84,0,0,0-.21,1.2,2.61,2.61,0,0,0,.21,1.15.63.63,0,0,0,.58.39q.78,0,.78-1.59t-.78-1.57Zm3.43,3.5V18H69.29v-.34L71,15.23h.55v2.37h.55V18h-.55v1Zm0-1.45V16.32c0-.2,0-.4,0-.6h0l-.32.58-.92,1.31h1.24Z"/><path class="cls-3" d="M30.64,18.46a1.75,1.75,0,0,0,.89.25.94.94,0,0,0,.6-.18.59.59,0,0,0,.2-.47q0-.49-.71-.78-1-.36-1-1.09a.91.91,0,0,1,.36-.74,1.31,1.31,0,0,1,.89-.29,1.79,1.79,0,0,1,.85.18l-.13.4a1.54,1.54,0,0,0-.74-.18.76.76,0,0,0-.56.2.52.52,0,0,0-.16.38.53.53,0,0,0,.18.42,1.68,1.68,0,0,0,.58.31q1,.38,1,1.14a1,1,0,0,1-.33.78,1.41,1.41,0,0,1-1,.33,1.78,1.78,0,0,1-1-.25l.11-.42Zm3.55-3.26v3.86h-.51V15.21Zm1,3.86V15.21h.56l1.23,2a8.87,8.87,0,0,1,.69,1.25h0a15.81,15.81,0,0,1-.07-1.58V15.21h.47v3.86h-.51l-1.2-2a9.53,9.53,0,0,1-.74-1.27h0q0,.69,0,1.58v1.65Zm6.59-.13a2.2,2.2,0,0,1-1,.2,1.81,1.81,0,0,1-1.34-.51,1.91,1.91,0,0,1-.56-1.45,1.91,1.91,0,0,1,2-2,2.11,2.11,0,0,1,.91.16l-.11.4a1.83,1.83,0,0,0-.78-.16,1.43,1.43,0,0,0-1.09.42,1.62,1.62,0,0,0-.4,1.16,1.64,1.64,0,0,0,.38,1.14,1.43,1.43,0,0,0,1.09.42,1.8,1.8,0,0,0,.8-.16l.11.38Zm2.75-1.67H43v1.38h1.65v.42H42.51V15.21h2.1v.42H43v1.23h1.49Z"/><path class="cls-1" d="M52.4,22H80c.06,9.17.13,23.42.06,29.61H52.4Z"/><path class="cls-4" d="M51.47,22H23.84c-.06,9.17-.13,23.42-.06,29.61H51.47Z"/><path class="cls-1" d="M51.47,88.82c-.54-.15-1.2-.41-1.73-.59-15.61-5.37-24.73-17.8-25.81-34a9.41,9.41,0,0,1-.09-1.66H51.47Z"/><path class="cls-4" d="M52.43,52.58H80.07A9.41,9.41,0,0,1,80,54.24c-1.08,16.18-10.2,28.61-25.81,34-.53.18-1.18.44-1.73.59Z"/><path class="cls-5" d="M38,58.54v.19h0l.09.42L38,59a1,1,0,0,0-.17-.1,1.09,1.09,0,0,0-.45-.1h-.21a1,1,0,0,0-.46.18.57.57,0,0,0-.22.37v.1c0,.1.06.35.14.37v-.09a.38.38,0,0,1,.36-.33h.15a1.11,1.11,0,0,1,1.14,1.08v0c0,.31-.16.7-.52.7h-.14a1.42,1.42,0,0,1-.69-.4l-.25-.27c-.07-.08-.17-.24-.23-.3v.2a1.27,1.27,0,0,1-.11.58.58.58,0,0,1-.43.33h-.21c-.33,0-.83-.32-.83-.58s.07-.31.21-.31h.09a.25.25,0,0,1,.27.24h0l0,.13a.43.43,0,0,0,.2-.15,1.06,1.06,0,0,0,.11-.22v-.06a.49.49,0,0,0-.23-.36,1,1,0,0,0-.47-.18h0a1.25,1.25,0,0,0-.57.13s-.2-.24-.24-.28A1.63,1.63,0,0,0,33,59.26a2,2,0,0,0-.81.19,5.89,5.89,0,0,1,.82.39,4.58,4.58,0,0,1,.69.5,6.11,6.11,0,0,1,.56.61,4.22,4.22,0,0,1,.43.71,2.8,2.8,0,0,1,.22.81h7.66v0a4,4,0,0,1,.31-.81,4.08,4.08,0,0,1,1-1.29,5,5,0,0,1,1.51-.89,2,2,0,0,0-.83-.19h0a1.67,1.67,0,0,0-.89.24,1.8,1.8,0,0,0-.3.24c-.05,0-.23.27-.25.29a1.25,1.25,0,0,0-.57-.13h0a1,1,0,0,0-.46.18.5.5,0,0,0-.24.37v0a.57.57,0,0,0,.31.39l0-.14c0-.14.15-.25.31-.25a.27.27,0,0,1,.26.27v0c0,.28-.49.6-.83.6h-.15a.54.54,0,0,1-.44-.25,1.24,1.24,0,0,1-.15-.48v-.25l0-.13a3.31,3.31,0,0,0-.22.3,2.64,2.64,0,0,1-.26.28,1.42,1.42,0,0,1-.7.4h-.13c-.37,0-.53-.39-.53-.7v0a1.11,1.11,0,0,1,1.14-1.1h.15a.39.39,0,0,1,.36.31v.11c.08,0,.14-.27.14-.37v-.1c0-.3-.38-.56-.78-.56h-.13a1.11,1.11,0,0,0-.43.11l-.16.1a1.51,1.51,0,0,0-.11.13l.07-.38v-.25a1.73,1.73,0,0,0-.25-.75,2.11,2.11,0,0,0-.5-.55,2.13,2.13,0,0,0-.51.55,1.68,1.68,0,0,0-.24.77Zm-3.07,7.74v5.05c0,1.52-.41,2.22-1.6,2.11v.42h5.52v-.42q-2.22.17-2-1.69V67h4.27q1.52-.09,1.6,1.68H43V64.93h-.36c-.06,1-.51,1.4-1.33,1.35H34.92Z"/><path class="cls-5" d="M69,64.65l.25.07V68a14.27,14.27,0,0,0-3.68,0,14.26,14.26,0,0,0-3.68,0V64.72l.25-.07v3.08a14.44,14.44,0,0,1,3.43,0,14.44,14.44,0,0,1,3.43,0V64.65ZM61.6,67.56h-.51V68h.51v.55a14.42,14.42,0,0,1,4,0,14.42,14.42,0,0,1,4,0V68h.51v-.44h-.51v-.65h.51v-.44h-.51v-.67h.51v-.44h-.51v-.5l-.25-.08v3.44a14.77,14.77,0,0,0-3.74-.06,14.77,14.77,0,0,0-3.74.06V64.78l-.25.08v.5h-.51v.44h.51v.67h-.51v.44h.51v.65Zm4-3a5.25,5.25,0,0,0-3.34-.07v3.15a11.77,11.77,0,0,1,3.34,0,11.77,11.77,0,0,1,3.34,0V64.48a5.25,5.25,0,0,0-3.34.07Zm-1.2,2.76a0,0,0,0,0,0,0,0,0,0,0,0,0,0,1,1,0,0,0-.37-.07,1.69,1.69,0,0,0-.4.06,0,0,0,0,0,0,0,0,0,0,0,0,0,0,1.66,1.66,0,0,1,.38-.05.92.92,0,0,1,.35.07Zm.82.06a0,0,0,0,0,0,0,0,0,0,0,0,0,0,1.1,1.1,0,0,0-.3-.09,1.81,1.81,0,0,0-.39,0,0,0,0,1,0,0,.05,1.71,1.71,0,0,1,.37,0,1.06,1.06,0,0,1,.28.08Zm-1.77-.59a0,0,0,1,0,0-.05.94.94,0,0,0-.37,0,1.79,1.79,0,0,0-.4.1,0,0,0,1,0,0,.05,1.74,1.74,0,0,1,.38-.09.89.89,0,0,1,.35,0Zm.95,0a0,0,0,0,0,0,0,0,0,0,0,0,0,0,1,1,0,0,0-.37-.07,1.69,1.69,0,0,0-.4.06,0,0,0,0,0,0,0,0,0,0,0,0,0,0,1.62,1.62,0,0,1,.38-.05.92.92,0,0,1,.35.07Zm.82.06a0,0,0,0,0,0,0,0,0,0,0,0,0,0,1.11,1.11,0,0,0-.3-.09,1.8,1.8,0,0,0-.39,0,0,0,0,0,0,0,0,0,0,0,0,0,0,0,1.77,1.77,0,0,1,.37,0,1.06,1.06,0,0,1,.28.08Zm-1.77-.32a0,0,0,0,0,0,0,0,0,0,0,0,0,0,.93.93,0,0,0-.37,0,1.78,1.78,0,0,0-.4.1,0,0,0,0,0,0,0,0,0,0,0,0,0,0,1.75,1.75,0,0,1,.38-.09.88.88,0,0,1,.35,0Zm0-.27a0,0,0,1,0,0-.05.94.94,0,0,0-.37,0,1.78,1.78,0,0,0-.4.1,0,0,0,0,0,0,0,0,0,0,0,0,0,0,1.72,1.72,0,0,1,.38-.09.88.88,0,0,1,.35,0Zm1.77.05a0,0,0,0,0,0,0,0,0,0,0,0,0,0,1.09,1.09,0,0,0-.3-.08,1.78,1.78,0,0,0-.39,0,0,0,0,0,0,0,0,0,0,0,0,0,0,0,1.76,1.76,0,0,1,.37,0,1,1,0,0,1,.28.08ZM64.39,66a0,0,0,0,0,0,0,0,0,0,0,0,0,0,1,1,0,0,0-.37-.07,1.69,1.69,0,0,0-.4.06,0,0,0,0,0,0,0,0,0,0,0,0,0,0,1.63,1.63,0,0,1,.38-.05.91.91,0,0,1,.35.07Zm.82.06a0,0,0,0,0,0,0,0,0,0,0,0,0,0,1.1,1.1,0,0,0-.3-.09,1.82,1.82,0,0,0-.39,0,0,0,0,0,0,0,0,0,0,0,0,0,0,0,1.73,1.73,0,0,1,.37,0,1.07,1.07,0,0,1,.28.08Zm-1.77-.32a0,0,0,0,0,0,0,0,0,0,0,0,0,0,.93.93,0,0,0-.37,0,1.79,1.79,0,0,0-.4.1,0,0,0,0,0,0,.05,1.76,1.76,0,0,1,.38-.09.88.88,0,0,1,.35,0Zm.95-.27a0,0,0,0,0,0,0,0,0,0,0,0,0,0,1,1,0,0,0-.37-.07,1.68,1.68,0,0,0-.4.05,0,0,0,1,0,0,.05,1.65,1.65,0,0,1,.38-.05.92.92,0,0,1,.35.07Zm.82.06a0,0,0,0,0,0,0,0,0,0,0,0,0,0,1.1,1.1,0,0,0-.3-.09,1.78,1.78,0,0,0-.39,0,0,0,0,1,0,0,.05,1.78,1.78,0,0,1,.37,0,1,1,0,0,1,.28.08Zm-1.77-.32a0,0,0,1,0,0-.05.94.94,0,0,0-.37,0,1.79,1.79,0,0,0-.4.1,0,0,0,0,0,0,.05,1.73,1.73,0,0,1,.38-.09.89.89,0,0,1,.35,0Zm.95,0a0,0,0,0,0,0,0,0,0,0,0,0,0,0A1,1,0,0,0,64,65a1.71,1.71,0,0,0-.4.06,0,0,0,0,0,0,0,0,0,0,0,0,0,0A1.62,1.62,0,0,1,64,65.1a.92.92,0,0,1,.35.07Zm.82.06a0,0,0,0,0,0,0,0,0,0,0,0,0,0,1.1,1.1,0,0,0-.3-.09,1.8,1.8,0,0,0-.39,0,0,0,0,0,0,0,0,0,0,0,0,0,0,0,1.75,1.75,0,0,1,.37,0,1.05,1.05,0,0,1,.28.08Zm-1.77-.32a0,0,0,0,0,0,0,0,0,0,0,0,0,0,.93.93,0,0,0-.37,0,1.79,1.79,0,0,0-.4.1,0,0,0,0,0,0,.05,1.73,1.73,0,0,1,.38-.09.88.88,0,0,1,.35,0Zm.95,0a0,0,0,0,0,0,0,0,0,0,0,0,0,0,1,1,0,0,0-.37-.07,1.71,1.71,0,0,0-.4.06,0,0,0,0,0,0,0,0,0,0,0,0,0,0,1.66,1.66,0,0,1,.38-.05.92.92,0,0,1,.35.07Zm2.41,2.41a.92.92,0,0,1,.35-.07,1.65,1.65,0,0,1,.38.05,0,0,0,0,0,0,0,0,0,0,0,0,0,0,1.69,1.69,0,0,0-.4-.06,1,1,0,0,0-.37.07,0,0,0,0,0,0,0,0,0,0,0,0,0,0Zm-.82.06a1.05,1.05,0,0,1,.28-.08,1.71,1.71,0,0,1,.37,0,0,0,0,0,0,0,0,0,0,0,0,0,0,0,1.81,1.81,0,0,0-.39,0,1.1,1.1,0,0,0-.3.09,0,0,0,0,0,0,0,0,0,0,0,0,0,0ZM66.8,67a.93.93,0,0,1,.35-.07,1.67,1.67,0,0,1,.38.05,0,0,0,0,0,0,0,0,0,0,0,0,0,0,1.68,1.68,0,0,0-.4-.05,1,1,0,0,0-.37.07,0,0,0,0,0,0,0,0,0,0,0,0,0,0ZM66,67.1a1,1,0,0,1,.28-.08,1.75,1.75,0,0,1,.37,0,0,0,0,0,0,0-.05,1.78,1.78,0,0,0-.39,0,1.1,1.1,0,0,0-.3.09,0,0,0,0,0,0,0,0,0,0,0,0,0,0Zm1.77-.32a.89.89,0,0,1,.35,0,1.74,1.74,0,0,1,.38.09,0,0,0,1,0,0-.05,1.79,1.79,0,0,0-.4-.1.94.94,0,0,0-.37,0,0,0,0,0,0,0,.05ZM66,66.83a1.05,1.05,0,0,1,.28-.08,1.77,1.77,0,0,1,.37,0,0,0,0,0,0,0-.05,1.8,1.8,0,0,0-.39,0,1.1,1.1,0,0,0-.3.09,0,0,0,0,0,0,0,0,0,0,0,0,0,0Zm1.77-.32a.89.89,0,0,1,.35,0,1.75,1.75,0,0,1,.38.09,0,0,0,0,0,0,0,0,0,0,0,0,0,0,1.77,1.77,0,0,0-.4-.1.93.93,0,0,0-.37,0,0,0,0,0,0,0,.05Zm-.94,0a.92.92,0,0,1,.35-.07,1.64,1.64,0,0,1,.38.05,0,0,0,0,0,0,0,0,0,0,0,0,0,0,1.71,1.71,0,0,0-.4-.06,1,1,0,0,0-.37.07,0,0,0,0,0,0,0,0,0,0,0,0,0,0Zm.94-.26a.88.88,0,0,1,.35,0,1.72,1.72,0,0,1,.38.09,0,0,0,1,0,0-.05,1.78,1.78,0,0,0-.4-.1.94.94,0,0,0-.37,0,0,0,0,0,0,0,.05ZM66,66.3a1,1,0,0,1,.28-.08,1.77,1.77,0,0,1,.37,0,0,0,0,0,0,0,0,0,0,0,0,0,0,0,1.78,1.78,0,0,0-.39,0,1.09,1.09,0,0,0-.3.08,0,0,0,0,0,0,0,0,0,0,0,0,0,0ZM66.8,66a.91.91,0,0,1,.35-.07,1.62,1.62,0,0,1,.38.05,0,0,0,0,0,0-.05,1.69,1.69,0,0,0-.4-.06,1,1,0,0,0-.37.07,0,0,0,0,0,0,0,0,0,0,0,0,0,0ZM66,66a1.06,1.06,0,0,1,.28-.08,1.73,1.73,0,0,1,.37,0,0,0,0,0,0,0,0,0,0,0,0,0,0,0,1.82,1.82,0,0,0-.39,0,1.1,1.1,0,0,0-.3.09,0,0,0,0,0,0,0,0,0,0,0,0,0,0Zm1.77-.32a.88.88,0,0,1,.35,0,1.77,1.77,0,0,1,.38.09,0,0,0,0,0,0,0,0,0,0,0,0,0,0,1.79,1.79,0,0,0-.4-.1.93.93,0,0,0-.37,0,0,0,0,0,0,0,0,0,0,0,0,0,0,0ZM66,65.76a1,1,0,0,1,.28-.08,1.71,1.71,0,0,1,.37,0,0,0,0,0,0,0,0,0,0,0,0,0,0,0,1.78,1.78,0,0,0-.39,0,1.1,1.1,0,0,0-.3.09,0,0,0,0,0,0,0,0,0,0,0,0,0,0Zm.82-.33a.92.92,0,0,1,.35-.07,1.64,1.64,0,0,1,.38.05,0,0,0,0,0,0-.05,1.68,1.68,0,0,0-.4-.05,1,1,0,0,0-.37.07,0,0,0,0,0,0,0,0,0,0,0,0,0,0Zm-.82.06a1,1,0,0,1,.28-.08,1.78,1.78,0,0,1,.37,0,0,0,0,0,0,0-.05,1.78,1.78,0,0,0-.39,0,1.1,1.1,0,0,0-.3.09,0,0,0,0,0,0,0,0,0,0,0,0,0,0Zm1.77-.32a.89.89,0,0,1,.35,0,1.73,1.73,0,0,1,.38.09,0,0,0,0,0,0,0,0,0,0,0,0,0,0,1.78,1.78,0,0,0-.4-.1.94.94,0,0,0-.37,0,0,0,0,0,0,0,.05ZM66,65.23a1,1,0,0,1,.28-.08,1.75,1.75,0,0,1,.37,0,0,0,0,0,0,0-.05,1.8,1.8,0,0,0-.39,0,1.1,1.1,0,0,0-.3.09,0,0,0,0,0,0,0,0,0,0,0,0,0,0Zm1.77-.32a.88.88,0,0,1,.35,0,1.74,1.74,0,0,1,.38.09,0,0,0,0,0,0-.05,1.79,1.79,0,0,0-.4-.1.93.93,0,0,0-.37,0,0,0,0,0,0,0,.05Zm-.94,0a.92.92,0,0,1,.35-.07,1.65,1.65,0,0,1,.38.05,0,0,0,0,0,0,0,0,0,0,0,0,0,0,1.71,1.71,0,0,0-.4-.06,1,1,0,0,0-.37.07,0,0,0,0,0,0,0A0,0,0,0,0,66.8,64.9Z"/><path class="cls-5" d="M70.32,62.95h-.4q-1.2-3.67-4.63-3.86-5.27.39-5.6,7.14.48,7.14,5.84,7.82,3.28,0,5-3.67h.4A21.24,21.24,0,0,1,69.6,74a5.11,5.11,0,0,0-1.84.19,16.31,16.31,0,0,1-2.8.29q-6.79-.39-7.19-7.72.48-7.63,7.35-8.2a10.13,10.13,0,0,1,3.52.67,2.1,2.1,0,0,0,.8.29.63.63,0,0,0,.32-.09h.4Z"/><path class="cls-5" d="M36.32,43.93a13.91,13.91,0,0,0,2.16.19c2.43-.09,3.78-1,3.87-2.87.06-1.2-1.36-2.59-4.08-4.18q-3.4-1.93-4.35-3.71A3,3,0,0,1,34.26,30q1.15-1.52,4.11-1.72a9.07,9.07,0,0,1,2.68.4,3.69,3.69,0,0,0,1.08.2.74.74,0,0,0,.54-.2h.43l.43,3.18H43.1a5,5,0,0,0-4.51-3,3,3,0,0,0-2.74,1.42A1.92,1.92,0,0,0,36,32.4a10.82,10.82,0,0,0,3.58,2.86c2.62,1.51,4.23,3,4.69,4.33a3.65,3.65,0,0,1-.34,2.78c-.79,1.44-2.52,2.19-5.1,2.27a13.38,13.38,0,0,1-2.31-.09A4.43,4.43,0,0,1,36.32,43.93Z"/><path class="cls-5" d="M34,42.92c.22-.26.43-.22.72-.36s.36-.42.22-.78c-.2-.52-.82-1-.94-1.28-.12.25-.73.76-.94,1.28-.14.36-.06.65.22.78S33.76,42.66,34,42.92Z"/><path class="cls-5" d="M33.74,43.35c-.34-.06-.41-.26-.67-.44a.56.56,0,0,0-.79.2,9.08,9.08,0,0,0-.64,1.45,9.09,9.09,0,0,0,1.58.17c.38-.06.59-.28.57-.58S33.62,43.67,33.74,43.35Z"/><path class="cls-5" d="M34.23,43.34c.11.32,0,.49,0,.8s.19.52.57.58a9.07,9.07,0,0,0,1.58-.17,9.09,9.09,0,0,0-.64-1.45.56.56,0,0,0-.79-.2C34.64,43.08,34.56,43.28,34.23,43.34Z"/><circle class="cls-6" cx="33.98" cy="44.8" r="0.11"/><path class="cls-5" d="M34,44.5a6.91,6.91,0,0,0,0-1.13h-.1a5.89,5.89,0,0,0,0,1.13Z"/><circle class="cls-6" cx="35.36" cy="42.42" r="0.11" transform="translate(-16.48 23.36) rotate(-30)"/><path class="cls-5" d="M35.07,42.53a6.92,6.92,0,0,0-1,.56l0,.08a5.91,5.91,0,0,0,1-.56Z"/><circle class="cls-6" cx="32.61" cy="42.42" r="0.11" transform="translate(-20.43 49.45) rotate(-60)"/><path class="cls-5" d="M32.85,42.61a6.89,6.89,0,0,0,1,.57l0-.08a5.91,5.91,0,0,0-1-.57Z"/><path class="cls-5" d="M68.66,44.08v.49H62.52v-.49c1.15.06,1.78-.36,1.88-1.51a17.51,17.51,0,0,0,2.06-.07c-.07,1.26.66,1.7,2.2,1.57Zm-4.25-2c0-.09,0-.18,0-.27v-2.7a7.81,7.81,0,0,0,2.08,0v3c-.68,0-1.4,0-2.07,0Zm0-2.22a7.81,7.81,0,0,1,1.05-.07,7.67,7.67,0,0,1,1,.07v-2c-.69.05-1.39.09-2.08.11v1.91Zm0-2.55V32.49a17.48,17.48,0,0,0,2.08-.07v4.81c-.69,0-1.39,0-2.08,0Zm0-5.31V31.1c0-1.25-.56-1.85-1.88-1.78v-.5h6.14v.5c-1.58-.14-2.18.52-2.18,2v.64C65.8,32,65.07,32,64.4,31.95Z"/><path class="cls-5" d="M72.52,36.26C71,37.44,63.76,37.7,60.6,37c-1.34-.29-2.09-.73-1.11-1.32-.81-.1-1.5.65-.81,1.12C61,38.39,71.72,37.79,72.52,36.26Z"/><path class="cls-5" d="M69.77,41.66c-1.35.93-10.51.54-7.6-.37-1.15-.11-1.44.56-.35.84C64.24,42.77,69.31,42.37,69.77,41.66Z"/><path class="cls-5" d="M70,31.58c-1.41.93-11,.54-8-.37-1.2-.11-1.51.56-.36.84C64.22,32.68,69.55,32.29,70,31.58Z"/><path class="cls-3" d="M14.42,70.54h0l.05.12v0a2.52,2.52,0,0,0-.36.2.33.33,0,0,0-.08.19,1,1,0,0,0,0,.34,1.56,1.56,0,0,0,.11.38,1.17,1.17,0,0,0,.29.41.77.77,0,0,0,.41.19.81.81,0,0,0,.45-.07.7.7,0,0,0,.25-.17.5.5,0,0,0,.12-.23.73.73,0,0,0,0-.27,4,4,0,0,0-.09-.4c0-.17-.08-.3-.1-.4a1.43,1.43,0,0,1,0-.31.78.78,0,0,1,.06-.29.82.82,0,0,1,.18-.25,1,1,0,0,1,.28-.19,1,1,0,0,1,.86,0,1.28,1.28,0,0,1,.65.7,2.4,2.4,0,0,1,.15.47,2,2,0,0,1,0,.51l0,0a3.54,3.54,0,0,0-.65.21h0L17,71.59v0l.35-.17s.08-.13.09-.3a1,1,0,0,0-.09-.5,1,1,0,0,0-.25-.34.6.6,0,0,0-.37-.15.84.84,0,0,0-.39.07.59.59,0,0,0-.22.16.51.51,0,0,0-.11.22.67.67,0,0,0,0,.24q0,.13.11.45a2.67,2.67,0,0,1,.13.67.75.75,0,0,1-.13.42.89.89,0,0,1-.39.31,1.14,1.14,0,0,1-1,0,1.66,1.66,0,0,1-.78-.85,2.18,2.18,0,0,1-.21-.94l0,0c.11,0,.34-.12.71-.28Zm4,1.77a3.29,3.29,0,0,1-.55-.66h0l-.1,0v0a2.45,2.45,0,0,1,.13.28.1.1,0,0,1,0,.06l-.11.08-.35.2-.48.26-1.2.61-.39.18-.31.13H15l-.05,0-.15-.24h0l-.1,0v0c.11.19.21.37.3.54s.18.37.27.57h0l.1,0v0l-.11-.26a.1.1,0,0,1,0-.06.15.15,0,0,1,.05-.07l.31-.18.32-.18.41-.21a1.15,1.15,0,0,1,.27-.11.52.52,0,0,1,.24,0,.82.82,0,0,1,.25.14.8.8,0,0,1,.18.24.64.64,0,0,1,.08.29.49.49,0,0,1-.06.25.53.53,0,0,1-.18.19l-.39.21-.3.15q-.48.25-.8.37v0l.19.33L16,76h0l.1-.05v0a.61.61,0,0,1-.1-.31s.09-.1.24-.18l.57-.3.41-.21a1.62,1.62,0,0,0,.31-.2.62.62,0,0,0,.17-.24.77.77,0,0,0,0-.34.94.94,0,0,0-.1-.38,1,1,0,0,0-.13-.19l-.12-.12-.11-.06-.5-.2.57-.29q.8-.41,1.08-.52V72.3Zm-1,5.46-.2,0a1.63,1.63,0,0,1-.44-.3,1.6,1.6,0,0,1-.23-.3,1.45,1.45,0,0,1-.19-.57,1,1,0,0,1,.13-.6,1.33,1.33,0,0,1,.52-.5,1.65,1.65,0,0,1,.46-.19,1.22,1.22,0,0,1,.35,0,1.1,1.1,0,0,1,.33.1,1.66,1.66,0,0,1,.37.22,1.16,1.16,0,0,1,.28.33,1,1,0,0,1,.15.55.8.8,0,0,1-.16.48,1.23,1.23,0,0,1-.37.33l-.14.07h0A2.86,2.86,0,0,1,18,77l-.21-.34-.42-.72a1.06,1.06,0,0,0-.55.63.9.9,0,0,0,.1.69,1,1,0,0,0,.23.27,2.18,2.18,0,0,0,.33.22l0,.06Zm.09-2a1,1,0,0,1,.65-.18.58.58,0,0,1,.43.31.55.55,0,0,1,.05.48.92.92,0,0,1-.44.44l-.08,0a4.25,4.25,0,0,1-.23-.37l-.22-.41-.16-.32Zm2.32,2a3.35,3.35,0,0,1-.62-.59h0l-.09.06v0l.12.18a.32.32,0,0,1,.06.12.09.09,0,0,1,0,.07l-.18.13-.23.16-.43.28-.37.22-.29.16h-.08l-.06,0-.17-.23h0l-.09.06v0q.19.26.36.51c.11.17.22.35.32.54h0l.09-.06v0L18,79.14a.1.1,0,0,1,0-.06A.15.15,0,0,1,18,79l.29-.22.3-.21.38-.25.23-.14a.31.31,0,0,1,.15,0,.81.81,0,0,1,.23.06.7.7,0,0,1,.21.12.85.85,0,0,1,.15.18.64.64,0,0,1,.11.28.49.49,0,0,1,0,.26.53.53,0,0,1-.16.21l-.36.25-.28.18c-.3.2-.55.35-.76.45v0l.22.31.23.39h0l.09-.06v0c-.1-.15-.14-.25-.14-.29s.08-.11.22-.21l.53-.36.38-.25a1.62,1.62,0,0,0,.29-.23.62.62,0,0,0,.15-.25.77.77,0,0,0,0-.34.94.94,0,0,0-.14-.36,1,1,0,0,0-.15-.18l-.13-.11-.12,0L19.47,78l.39-.23v-.06ZM19,81.09v0l.07-.08q.48.07,1,.1l.91.06q.42,0,.84,0l-.35-.5-.2-.27c-.11-.14-.17-.21-.2-.21a1.24,1.24,0,0,0-.32.13l-.08,0h0l-.06-.09v0L21,80l.14-.11h0L22,81.15a4.48,4.48,0,0,0,.29.38v0l-.1.07-.88-.07-1.1-.06-.69,0,.1.15.3.42c.11.15.21.28.29.38l.16.17,0,0,.16-.06.26-.11h0l.07.1v0c-.28.14-.48.26-.62.35h0l-.66-1L19,81.09Zm5,.33v.06q-.25.16-1,.71l-.5.39.53.1.12,0,.14.09a1,1,0,0,1,.16.16.94.94,0,0,1,.17.35.76.76,0,0,1,0,.34.63.63,0,0,1-.12.26,1.63,1.63,0,0,1-.27.26l-.36.28-.5.41c-.13.1-.19.18-.2.22s0,.14.16.28v0l-.09.07h0L22,85.11l-.25-.29v0q.29-.18.71-.51l.27-.21.34-.28a.53.53,0,0,0,.14-.22.49.49,0,0,0,0-.26.65.65,0,0,0-.13-.27.79.79,0,0,0-.22-.2.81.81,0,0,0-.28-.09.52.52,0,0,0-.24,0,1.15,1.15,0,0,0-.25.16l-.36.28-.28.23-.27.24a.16.16,0,0,0,0,.07.11.11,0,0,0,0,.06l.16.23v0l-.09.07h0c-.12-.18-.25-.35-.37-.51l-.4-.48v0l.09-.07h0l.19.21.06,0,.08,0,.28-.19.35-.26L22.59,82l.43-.35.3-.26a.36.36,0,0,0,.09-.1.1.1,0,0,0,0-.06L23.22,81v0l.09-.07h0a3.3,3.3,0,0,0,.66.54ZM24.09,87V87a2.2,2.2,0,0,1-.36-.16,1,1,0,0,1-.27-.23.9.9,0,0,1-.22-.66,1.06,1.06,0,0,1,.43-.71l.53.64.26.29a2.87,2.87,0,0,0,.34.33h0l.12-.09a1.23,1.23,0,0,0,.31-.39.8.8,0,0,0,.07-.5,1,1,0,0,0-.24-.51,1.15,1.15,0,0,0-.33-.28,1.64,1.64,0,0,0-.4-.15,1.08,1.08,0,0,0-.34,0,1.22,1.22,0,0,0-.34.1,1.66,1.66,0,0,0-.42.26,1.33,1.33,0,0,0-.42.58,1,1,0,0,0,0,.61,1.45,1.45,0,0,0,.29.53,1.6,1.6,0,0,0,.28.26,1.63,1.63,0,0,0,.48.22l.2-.06Zm-.26-2,.22.29.29.36a4.26,4.26,0,0,0,.29.33l.08-.06a.92.92,0,0,0,.35-.51.55.55,0,0,0-.14-.47.58.58,0,0,0-.48-.23,1,1,0,0,0-.61.29Zm2.57,1.38v.06l-.34.3.52,0,.12,0,.15.08a1,1,0,0,1,.18.15.94.94,0,0,1,.21.33.77.77,0,0,1,.06.33.62.62,0,0,1-.1.28,1.63,1.63,0,0,1-.24.28l-.33.32-.46.46c-.12.12-.17.2-.17.24s.06.13.19.26v0l-.08.08h0l-.3-.33-.28-.26v0q.27-.21.66-.59l.24-.24.31-.32a.53.53,0,0,0,.12-.23.49.49,0,0,0,0-.26.64.64,0,0,0-.16-.25.83.83,0,0,0-.18-.15.7.7,0,0,0-.23-.08A.81.81,0,0,0,26,87a.31.31,0,0,0-.15,0l-.2.18-.32.31-.26.26-.24.27a.15.15,0,0,0,0,.08.1.1,0,0,0,0,.06l.18.22v0l-.08.08h0L24.49,88,24,87.61v0l.08-.08h0l.21.19.06,0,.08,0,.25-.22.32-.29.37-.35.2-.2.15-.16a.08.08,0,0,0,0-.07.32.32,0,0,0-.08-.11l-.15-.16v0l.08-.08h0a3.35,3.35,0,0,0,.72.47Zm3.91,2.23.23.22.3.29.57.48v0l-.09.1h0l-.22-.17a.34.34,0,0,0-.13-.07.19.19,0,0,0-.13.06l-.21.21-.4.44-.8.89-.34.38a3.4,3.4,0,0,0-.24.29.23.23,0,0,0,0,.11.19.19,0,0,0,0,.1,2.06,2.06,0,0,0,.24.25v0l-.09.1h0l-.33-.32-.21-.2-.56-.48v0l.09-.1h0l.26.2.11,0a.21.21,0,0,0,.1,0,2.51,2.51,0,0,0,.25-.25l.37-.41.8-.89.34-.38.24-.29a.22.22,0,0,0,0-.11.19.19,0,0,0,0-.1,2.27,2.27,0,0,0-.24-.25v0l.09-.1Zm1,2.48a3.37,3.37,0,0,1-.77-.37h0l-.07.09v0l.17.14a.33.33,0,0,1,.09.1.08.08,0,0,1,0,.07l-.13.18-.17.23-.32.4-.28.33-.23.25-.07,0h-.06l-.24-.16h0l-.07.08v0l.5.38.47.41h0l.07-.08v0l-.2-.19A.1.1,0,0,1,30,93a.15.15,0,0,1,0-.08l.21-.3.22-.29.28-.35.18-.2a.31.31,0,0,1,.14-.06.82.82,0,0,1,.24,0,.7.7,0,0,1,.24,0,.85.85,0,0,1,.2.12.64.64,0,0,1,.19.23.49.49,0,0,1,0,.26.53.53,0,0,1-.09.24c0,.08-.14.19-.27.35l-.21.26q-.34.42-.58.66v0l.31.22.33.3h0l.07-.09v0c-.14-.11-.21-.19-.22-.24s0-.13.14-.26l.4-.51.29-.35a1.64,1.64,0,0,0,.21-.31.62.62,0,0,0,.06-.29.77.77,0,0,0-.1-.32.93.93,0,0,0-.25-.3,1,1,0,0,0-.19-.12l-.16-.06h-.12l-.53,0,.3-.34,0-.06Zm1.41,1.7,0-.05h0l.42.1q.4-.55.45-.65a2.25,2.25,0,0,0,.47.1l0,.08c-.08.08-.28.32-.61.73l.23.17.36.24v0l-.17.15h0l-.24-.17-.3-.22-.63.85a4,4,0,0,0-.27.4.26.26,0,0,0,0,.2.35.35,0,0,0,.15.18.61.61,0,0,0,.31.12v.11l-.39,0a.64.64,0,0,1-.26-.11.51.51,0,0,1-.14-.8l.22-.28.05-.07.63-.87L33,93l-.22-.15v0Zm2.2,3.5v-.06a2.16,2.16,0,0,1-.39-.05,1,1,0,0,1-.32-.14.9.9,0,0,1-.39-.57,1.07,1.07,0,0,1,.22-.81l.69.47.33.21a2.82,2.82,0,0,0,.42.22h0l.09-.12a1.23,1.23,0,0,0,.19-.46.8.8,0,0,0-.07-.5,1,1,0,0,0-.37-.43,1.14,1.14,0,0,0-.4-.17,1.65,1.65,0,0,0-.43,0,1.09,1.09,0,0,0-.34.05,1.22,1.22,0,0,0-.3.19,1.65,1.65,0,0,0-.33.37,1.33,1.33,0,0,0-.25.68,1,1,0,0,0,.15.6,1.45,1.45,0,0,0,.42.43,1.61,1.61,0,0,0,.34.17,1.63,1.63,0,0,0,.52.08l.17-.11Zm-.78-1.81.29.22.38.27.37.23.06-.08a.92.92,0,0,0,.2-.59.55.55,0,0,0-.26-.41.58.58,0,0,0-.52-.09,1,1,0,0,0-.51.45Zm2.88.62,0,.05c-.06.08-.16.23-.3.45l.29-.11.24-.07a.53.53,0,0,1,.2,0,.58.58,0,0,1,.19.07.51.51,0,0,1,.16.15v0q-.21.27-.35.49l-.1-.06a.35.35,0,0,0-.16-.38.41.41,0,0,0-.29-.06.49.49,0,0,0-.27.14,1.62,1.62,0,0,0-.24.31l-.15.25-.19.33a3,3,0,0,0-.16.31.11.11,0,0,0,0,.14l.3.21v0l-.06.09h0l-.61-.39-.54-.3v0l.06-.09h0l.26.13h.06a.14.14,0,0,0,.07,0l.19-.28.23-.36.26-.44.14-.25.1-.2a.08.08,0,0,0,0-.07.32.32,0,0,0-.11-.08L36.14,95v0l.06-.1h0a3.36,3.36,0,0,0,.82.26Zm1.88,1.07a3.37,3.37,0,0,1-.84-.18h0l0,.1v0l.2.09a.32.32,0,0,1,.11.07.08.08,0,0,1,0,.07l-.08.21-.11.26-.22.46-.19.38-.16.29a.14.14,0,0,1-.06.05h-.06l-.27-.1h0l0,.1v0l.57.24.56.28h0l0-.1v0l-.24-.14a.1.1,0,0,1,0-.05.15.15,0,0,1,0-.08,3.25,3.25,0,0,1,.13-.34l.15-.34.19-.41a1.8,1.8,0,0,1,.13-.24.32.32,0,0,1,.12-.1.82.82,0,0,1,.23-.07.7.7,0,0,1,.24,0,.83.83,0,0,1,.22.07.64.64,0,0,1,.24.18.49.49,0,0,1,.1.24.54.54,0,0,1,0,.26c0,.09-.09.22-.17.41l-.14.31q-.23.49-.4.78l0,0,.35.14.4.21h0l0-.1v0c-.16-.08-.25-.14-.27-.18a.52.52,0,0,1,.07-.29l.26-.59.19-.41a1.65,1.65,0,0,0,.12-.35.63.63,0,0,0,0-.29.77.77,0,0,0-.17-.29.93.93,0,0,0-.31-.23l-.22-.07-.17,0-.12,0-.5.15q.12-.25.21-.4l0-.05ZM41,98l-.08-.06v0l.12-.3a1.52,1.52,0,0,1,1,0,1,1,0,0,1,.42.28.7.7,0,0,1,.17.36.83.83,0,0,1-.06.4l-.2.48-.28.72a.47.47,0,0,0,0,.19.11.11,0,0,0,0,.06l.09.06.13.07v0l0,.1h0l-.32-.14-.35-.12,0,0,.16-.39-.68.21a.8.8,0,0,1-.31-.06.78.78,0,0,1-.31-.2.53.53,0,0,1-.14-.28.64.64,0,0,1,0-.33.76.76,0,0,1,.44-.47,3,3,0,0,1,1.34.13.71.71,0,0,0,0-.57.65.65,0,0,0-.37-.31.8.8,0,0,0-.27-.06.36.36,0,0,0-.16,0L41,98Zm1,.81a2.45,2.45,0,0,0-.94-.08.52.52,0,0,0-.32.34.36.36,0,0,0,.23.52.93.93,0,0,0,.78-.13Z"/><path class="cls-3" d="M43,98.49l0-.06,0,0,.43,0c.14-.43.22-.68.23-.75a2.25,2.25,0,0,0,.48-.05l0,.07c0,.1-.17.39-.35.88l.27.09.42.12v0l-.11.19,0,0-.28-.09-.36-.11-.34,1a4,4,0,0,0-.13.46.27.27,0,0,0,0,.2.35.35,0,0,0,.2.13.61.61,0,0,0,.33,0l0,.11-.36.15a.64.64,0,0,1-.28,0,.51.51,0,0,1-.38-.72c0-.13.08-.24.12-.33l0-.09.33-1-.1,0L43,98.52l0,0Zm2.51-.83a.29.29,0,1,1-.33.43.27.27,0,0,1,0-.22.28.28,0,0,1,.14-.18.28.28,0,0,1,.22,0Zm-.09,1.18a3.38,3.38,0,0,1-.86,0h0l0,.11,0,0,.21.06a.32.32,0,0,1,.13.05.08.08,0,0,1,0,.07s0,.1,0,.22,0,.21-.06.28l-.13.49-.12.41c-.06.18-.09.29-.11.32a.14.14,0,0,1-.05.06l-.06,0-.28-.05h0l0,.11,0,0,.61.14.6.18,0,0,0-.1,0,0-.26-.09,0,0a.17.17,0,0,1,0-.08,3.19,3.19,0,0,1,.07-.36l.08-.36.15-.57q.14-.51.25-.83l0,0Zm.36,1.41a1.45,1.45,0,0,1,.28-.54,1.16,1.16,0,0,1,.55-.36,1.33,1.33,0,0,1,.78,0,1.18,1.18,0,0,1,.87,1.5,1.33,1.33,0,0,1-1.65,1,1.12,1.12,0,0,1-.58-.36,1.23,1.23,0,0,1-.28-.57,1.4,1.4,0,0,1,0-.63Zm.52,0a2.1,2.1,0,0,0-.08.65,1,1,0,0,0,.17.52.69.69,0,0,0,.4.29.63.63,0,0,0,.55-.1,1.12,1.12,0,0,0,.38-.65,1.71,1.71,0,0,0,0-.93.69.69,0,0,0-.51-.5.63.63,0,0,0-.57.1,1.12,1.12,0,0,0-.36.63Zm3-.43a3.37,3.37,0,0,1-.85.08l0,0,0,.11,0,0,.22,0,.13,0a.08.08,0,0,1,0,.07s0,.1,0,.22,0,.21,0,.28l-.07.51c0,.1,0,.24-.07.42s-.06.3-.07.33a.14.14,0,0,1,0,.07l-.06,0-.28,0,0,0,0,.11,0,0,.62.07.62.11,0,0,0-.11,0,0-.27-.06-.05,0a.15.15,0,0,1,0-.08,3.39,3.39,0,0,1,0-.36c0-.21,0-.33,0-.36l.06-.45a1.82,1.82,0,0,1,0-.27.31.31,0,0,1,.09-.13.82.82,0,0,1,.2-.13.7.7,0,0,1,.23-.08.83.83,0,0,1,.23,0,.64.64,0,0,1,.28.1.49.49,0,0,1,.17.2.54.54,0,0,1,.05.25c0,.09,0,.24,0,.44l0,.34q-.08.54-.16.87l0,0,.38,0,.44.08,0,0,0-.11,0,0a.62.62,0,0,1-.31-.09.51.51,0,0,1,0-.3l.08-.64.06-.45a1.61,1.61,0,0,0,0-.37.62.62,0,0,0-.09-.28.77.77,0,0,0-.25-.23.94.94,0,0,0-.37-.13H50l-.16,0-.11.06-.44.29q0-.28.08-.45l0,0Zm2,1.19h-.1l0,0-.05-.32a1.52,1.52,0,0,1,.83-.48,1,1,0,0,1,.51,0,.7.7,0,0,1,.33.23.83.83,0,0,1,.15.37l.07.52.12.76a.47.47,0,0,0,.05.19l.06,0h.26l0,0,0,.1,0,0-.35,0-.37.07,0,0-.06-.41-.49.52a.8.8,0,0,1-.3.11.78.78,0,0,1-.36,0,.53.53,0,0,1-.26-.17.64.64,0,0,1-.13-.31.76.76,0,0,1,.14-.63,3,3,0,0,1,1.23-.56.71.71,0,0,0-.25-.51.65.65,0,0,0-.48-.08.79.79,0,0,0-.26.09.35.35,0,0,0-.13.09s0,.13-.09.34l0,0Zm1.25.22a2.44,2.44,0,0,0-.85.4.52.52,0,0,0-.11.46.36.36,0,0,0,.46.34.93.93,0,0,0,.61-.5l-.11-.69ZM54,98.35a3.31,3.31,0,0,1-.78.36l0,0,0,.11,0,0,.31-.06.06,0a.35.35,0,0,1,.05.12c0,.07.05.2.1.39l.12.54.28,1.31c0,.09,0,.24.08.42s0,.3,0,.33a.14.14,0,0,1,0,.08l0,0-.27.08,0,0,0,.11,0,0,.6-.15.62-.11,0,0,0-.11h0l-.28,0-.06,0a.16.16,0,0,1,0-.07,3.42,3.42,0,0,1-.1-.35l-.09-.36-.34-1.59q-.19-.88-.22-1.18l-.05,0Zm4.1.95.15.5.15.48a3.55,3.55,0,0,0,.13.35.26.26,0,0,0,.07.1l.1,0,.34-.07h0l0,.12v0l-.72.2-.7.24h0l0-.12v0l.3-.12a.23.23,0,0,0,.09-.07.21.21,0,0,0,0-.11,2.34,2.34,0,0,0-.08-.34l-.16-.53-.35-1.15-.15-.48a3.8,3.8,0,0,0-.12-.36.24.24,0,0,0-.07-.1l-.1,0-.34.07h0l0-.12v0l1.23-.36L59,97h0a1.27,1.27,0,0,0,0,.3c0,.11.06.26.11.45v0l-.12,0h0l-.08-.18a2,2,0,0,0-.12-.24,2.42,2.42,0,0,0-.74.13l-.47.17a9.5,9.5,0,0,0,.26,1l.13.43.43-.13.36-.13.17-.09a.11.11,0,0,0,0-.07.89.89,0,0,0,0-.19l0-.14v0l.13,0,0,0,.15.55.09.27.11.31,0,0-.12,0h0l-.07-.21a.83.83,0,0,0-.08-.17.12.12,0,0,0-.08-.06l-.19,0-.42.11-.38.12Zm1.91,0a1.45,1.45,0,0,1-.1-.6,1.16,1.16,0,0,1,.22-.62,1.33,1.33,0,0,1,.62-.47,1.18,1.18,0,0,1,1.6.68,1.33,1.33,0,0,1-.73,1.76,1.12,1.12,0,0,1-.67.06,1.23,1.23,0,0,1-.57-.29,1.4,1.4,0,0,1-.36-.52Zm.39-.35a2.11,2.11,0,0,0,.33.57,1,1,0,0,0,.45.32.69.69,0,0,0,.49,0,.63.63,0,0,0,.38-.41,1.12,1.12,0,0,0-.09-.75,1.71,1.71,0,0,0-.54-.76.69.69,0,0,0-.71-.09.63.63,0,0,0-.4.42,1.12,1.12,0,0,0,.09.72Zm2.36-2.22a3.37,3.37,0,0,1-.68.52v0l0,.1h0l.2-.09.13,0a.08.08,0,0,1,.06,0l.1.19.12.25.21.46.08.19a1.61,1.61,0,0,0,.29.48.51.51,0,0,0,.31.14.93.93,0,0,0,.45-.1,1,1,0,0,0,.29-.19.6.6,0,0,0,.16-.22,4.06,4.06,0,0,1,.2-.46l.16.42h0l.33-.17.46-.18v0l0-.09h0l-.07,0a.75.75,0,0,1-.22.08.14.14,0,0,1-.08,0,1,1,0,0,1-.13-.23l-.27-.58-.19-.42q-.21-.48-.33-.8h-.06a3.34,3.34,0,0,1-.68.52v0l0,.1h0l.2-.09.13,0a.08.08,0,0,1,.06,0l.11.19.12.25.11.26.11.27a1.29,1.29,0,0,1,.09.25.83.83,0,0,1,0,.21.71.71,0,0,1-.15.3.79.79,0,0,1-.29.21.61.61,0,0,1-.3.06.38.38,0,0,1-.24-.11,1.45,1.45,0,0,1-.23-.4l-.25-.55q-.21-.48-.33-.8Zm2.82-1.31h.06q.06.16.19.42c.07-.16.14-.33.19-.49a.46.46,0,0,1,.06-.11l.12-.12a1,1,0,0,1,.19-.13.94.94,0,0,1,.38-.1.77.77,0,0,1,.34,0,.62.62,0,0,1,.23.17,1.64,1.64,0,0,1,.2.31l.21.41.3.57c.08.14.14.22.18.24a.62.62,0,0,0,.31-.1h0l.05.1v0l-.41.18-.33.19h0q-.12-.32-.37-.8l-.15-.3c-.09-.18-.16-.31-.21-.39a.54.54,0,0,0-.19-.18.49.49,0,0,0-.25-.06.64.64,0,0,0-.29.08.85.85,0,0,0-.19.13.71.71,0,0,0-.14.2.81.81,0,0,0-.08.22.31.31,0,0,0,0,.15,1.81,1.81,0,0,0,.11.25l.2.4.18.32a3.37,3.37,0,0,0,.18.31l.07.05h.06l.26-.11h0l0,.1v0l-.57.27L66,98h0l0-.1v0l.24-.15a.12.12,0,0,0,0-.05.13.13,0,0,0,0-.08L66,97.26l-.18-.39-.23-.45-.14-.25L65.36,96a.08.08,0,0,0-.06,0l-.13,0-.19.1h0l-.05-.1v0a3.37,3.37,0,0,0,.66-.55Zm2.7-2.74h0l.27-.15h.06a.38.38,0,0,1,.09.11l.23.35.31.49a1.29,1.29,0,0,0-.62.18,1,1,0,0,0-.34.36l-.25.45A.79.79,0,0,0,68,95a1.49,1.49,0,0,0,.2.54,1.53,1.53,0,0,0,.38.43,1,1,0,0,0,.54.2,1,1,0,0,0,.61-.16.79.79,0,0,0,.26-.23s.06-.16.11-.34a3.66,3.66,0,0,1,.13-.34l0,.09.18.31h0l.33-.22.38-.21v0l-.05-.08h0a1.32,1.32,0,0,1-.28.12h-.1a.69.69,0,0,1-.15-.18l-.24-.39L69.47,93q-.46-.77-.59-1h-.06a3.29,3.29,0,0,1-.62.59v0l.06.09Zm1.23,1.18a1.16,1.16,0,0,0-.45-.05.89.89,0,0,0-.39.12.75.75,0,0,0-.29.31.66.66,0,0,0-.05.44,1.5,1.5,0,0,0,.19.47,1.1,1.1,0,0,0,.57.51.72.72,0,0,0,.64-.06.64.64,0,0,0,.24-.25A.72.72,0,0,0,70,95a.69.69,0,0,0-.06-.31q-.06-.13-.27-.47l-.23-.38Zm1.32-.74-.1,0h0l-.17-.27a1.52,1.52,0,0,1,.57-.78,1,1,0,0,1,.48-.18.69.69,0,0,1,.39.08.82.82,0,0,1,.29.28l.27.44.42.65a.47.47,0,0,0,.12.15h.07l.1,0,.13-.07h0l.06.09v0l-.3.18-.3.22h-.05l-.22-.35-.23.68a.8.8,0,0,1-.23.22.78.78,0,0,1-.34.13.53.53,0,0,1-.31-.05.63.63,0,0,1-.24-.23.76.76,0,0,1-.12-.63,3,3,0,0,1,.89-1,.71.71,0,0,0-.44-.36.65.65,0,0,0-.47.12.8.8,0,0,0-.21.19.35.35,0,0,0-.08.14s0,.14.06.34v0ZM72,92.79a2.44,2.44,0,0,0-.62.71.52.52,0,0,0,.09.46.36.36,0,0,0,.56.12.93.93,0,0,0,.35-.71L72,92.79Zm.25-1.08h0l.2-.17.08-.07.66.85.05.07.21.28a.51.51,0,0,0,.81.09.65.65,0,0,0,.18-.22c0-.21.06-.34.08-.39l-.11,0a.61.61,0,0,1-.2.27.35.35,0,0,1-.22.09.27.27,0,0,1-.18-.08,4.06,4.06,0,0,1-.31-.37l-.64-.84.29-.23.23-.18v0l-.1-.2h0l-.34.28-.22.17c-.3-.43-.48-.69-.54-.79h-.08a2.29,2.29,0,0,1-.22.43q.08.08.5.61a3.8,3.8,0,0,1-.21.38v0l0,.05Zm1-2.81a.29.29,0,0,1,.41.05.28.28,0,0,1,.06.21.29.29,0,0,1-.33.25.27.27,0,0,1-.19-.11.28.28,0,0,1-.06-.22.29.29,0,0,1,.11-.19Zm.89.78h.06q.19.28.51.7l.36.46.23.28.24.27.07,0h.06l.23-.16h0l.07.09v0l-.5.37-.48.4h0L75,92.05v0l.21-.19a.12.12,0,0,0,0-.06.14.14,0,0,0,0-.08L75,91.41l-.26-.35-.31-.4-.18-.22-.15-.16a.08.08,0,0,0-.07,0,.32.32,0,0,0-.12.07l-.17.13h0l-.07-.09v0a3.39,3.39,0,0,0,.54-.67Zm1.27.56a1.39,1.39,0,0,0,.5.38,1.22,1.22,0,0,0,.63.1,1.12,1.12,0,0,0,.62-.27,1.33,1.33,0,0,0,.15-1.9,1.18,1.18,0,0,0-1.73-.15,1.33,1.33,0,0,0-.44.64,1.17,1.17,0,0,0,0,.66,1.45,1.45,0,0,0,.28.54Zm.26-.45a2.09,2.09,0,0,0,.49.44,1,1,0,0,0,.52.16.69.69,0,0,0,.47-.16.63.63,0,0,0,.23-.51,1.12,1.12,0,0,0-.32-.69,1.71,1.71,0,0,0-.75-.55.69.69,0,0,0-.7.13.63.63,0,0,0-.25.53,1.12,1.12,0,0,0,.31.66ZM77.12,87h.06l.31.33q0-.27,0-.53a.47.47,0,0,1,0-.12.92.92,0,0,1,.08-.15,1,1,0,0,1,.14-.18,1,1,0,0,1,.32-.22.77.77,0,0,1,.33-.07.62.62,0,0,1,.28.09,1.62,1.62,0,0,1,.29.23l.33.32.47.44c.12.11.2.17.25.16s.13-.07.26-.2h0l.08.08v0l-.32.31-.25.29h0q-.22-.26-.61-.63l-.24-.24-.33-.3a.53.53,0,0,0-.24-.11.49.49,0,0,0-.26,0,.64.64,0,0,0-.25.17.82.82,0,0,0-.14.18.7.7,0,0,0-.07.23.83.83,0,0,0,0,.24.31.31,0,0,0,.05.14l.19.2.32.31.27.25.28.24.08,0,.06,0,.21-.19h0l.08.08v0l-.45.44c-.14.14-.28.3-.42.46h0l-.08-.08v0l.18-.22a.12.12,0,0,0,0-.06.14.14,0,0,0,0-.08l-.23-.25-.3-.31-.37-.35-.21-.19-.17-.14a.08.08,0,0,0-.07,0,.33.33,0,0,0-.11.08l-.15.15h0l-.08-.08v0a3.35,3.35,0,0,0,.44-.74Zm6.81-4.82.13.23a2.68,2.68,0,0,1-.55,1.14,2.17,2.17,0,0,1-1.37.85A1.79,1.79,0,0,1,80.7,84a1.83,1.83,0,0,1-.62-.88,1.8,1.8,0,0,1,0-1,2.55,2.55,0,0,1,.51-1,3.25,3.25,0,0,1,.49-.48,2.92,2.92,0,0,1,.49-.33h0a3.3,3.3,0,0,0,.49.54v0L82,81h0l-.36-.26a1.41,1.41,0,0,0-.47.21,1.86,1.86,0,0,0-.42.38,1.62,1.62,0,0,0-.35.73,1.3,1.3,0,0,0,.08.76,1.82,1.82,0,0,0,.56.7,1.8,1.8,0,0,0,.85.4,1.55,1.55,0,0,0,.86-.1,1.91,1.91,0,0,0,.74-.58,2.18,2.18,0,0,0,.24-.37,1.64,1.64,0,0,0,.14-.34,1.59,1.59,0,0,0,0-.31Zm-.54-.68a1.4,1.4,0,0,0,.59.22,1.22,1.22,0,0,0,.63-.09,1.11,1.11,0,0,0,.52-.44,1.33,1.33,0,0,0-.41-1.86,1.18,1.18,0,0,0-1.7.36,1.33,1.33,0,0,0-.23.74,1.16,1.16,0,0,0,.18.64,1.45,1.45,0,0,0,.43.43Zm.12-.51a2.1,2.1,0,0,0,.59.28,1,1,0,0,0,.55,0,.69.69,0,0,0,.4-.29.62.62,0,0,0,.07-.56,1.12,1.12,0,0,0-.5-.56,1.71,1.71,0,0,0-.88-.31.69.69,0,0,0-.63.33.63.63,0,0,0-.08.57A1.12,1.12,0,0,0,83.51,81Z"/><path class="cls-3" d="M83,77.14l.05,0q.24.17,1,.62l1.41.81.32.17.32.16h.08l.05,0,.16-.23h0l.09.05v0c-.12.18-.23.36-.33.53s-.2.36-.29.55h0l-.09-.05v0l.12-.26a.12.12,0,0,0,0-.06.14.14,0,0,0,0-.07l-.28-.19-.37-.22-1.16-.67L83.58,78l-.35-.18-.13,0-.05,0a2.49,2.49,0,0,0-.17.27h0L82.75,78v0a3.3,3.3,0,0,0,.25-.82Zm.77-1.33a3.31,3.31,0,0,1-.25.82v0l.09.05h0a2.52,2.52,0,0,1,.17-.27l.05,0,.13,0,.35.18.48.27,1.16.67.37.22.28.19a.14.14,0,0,1,0,.07.12.12,0,0,1,0,.06l-.12.26v0l.09.05h0q.15-.29.29-.55c.1-.17.21-.35.33-.53v0l-.09-.05h0l-.16.23-.05,0h-.08l-.32-.16-.32-.17-1.41-.81q-.78-.45-1-.62l-.05,0ZM87.83,75l.13.16a1.63,1.63,0,0,1,0,.53,1.59,1.59,0,0,1-.12.36,1.45,1.45,0,0,1-.37.48,1,1,0,0,1-.57.23,1.33,1.33,0,0,1-.71-.15,1.77,1.77,0,0,1-.64-.55,1.52,1.52,0,0,1-.1-.33,1.66,1.66,0,0,1,0-.43,1.14,1.14,0,0,1,.12-.42,1,1,0,0,1,.37-.43.8.8,0,0,1,.48-.13,1.24,1.24,0,0,1,.48.13l.14.08v0a2.87,2.87,0,0,1-.16.45l-.16.36-.36.75a1.07,1.07,0,0,0,.83.1.9.9,0,0,0,.51-.47,1,1,0,0,0,.1-.34,2.21,2.21,0,0,0,0-.39l.06,0Zm-1.68,1a1,1,0,0,1-.51-.44.58.58,0,0,1,0-.53A.55.55,0,0,1,86,74.7a.92.92,0,0,1,.61.11l.09,0a4.38,4.38,0,0,1-.18.4l-.21.41-.17.31Zm1.16-4.56c-.07.17-.16.41-.28.69a1,1,0,0,0-.43.49,1.47,1.47,0,0,0-.1.41,1.64,1.64,0,0,0,0,.45.72.72,0,0,0,.17.37.92.92,0,0,0,.33.24.74.74,0,0,0,.44,0,.82.82,0,0,0,.46-.34l.11.5a.56.56,0,0,0,.19.15.25.25,0,0,0,.17,0,.66.66,0,0,0,.24-.21l.06.53a.81.81,0,0,0,.17.19.77.77,0,0,0,.17.1.67.67,0,0,0,.34,0,.76.76,0,0,0,.33-.12,1.09,1.09,0,0,0,.27-.26,1.75,1.75,0,0,0,.21-.37,1.9,1.9,0,0,0,.16-.75,1.16,1.16,0,0,0-.19-.66,1,1,0,0,0-.45-.39.73.73,0,0,0-.36-.06.51.51,0,0,0-.31.13,1,1,0,0,0-.22.36l-.22.54a1.2,1.2,0,0,1-.21.38.16.16,0,0,1-.19,0,.2.2,0,0,1-.1-.09A1.21,1.21,0,0,1,88,73.6l0-.11a1.21,1.21,0,0,0,.1-.43,1.26,1.26,0,0,0,0-.39.86.86,0,0,0-.18-.33.81.81,0,0,0-.3-.22.66.66,0,0,0-.3,0l.19-.44-.14-.21ZM87,73.6a.61.61,0,0,1-.36-.33.55.55,0,0,1,0-.42.5.5,0,0,1,.37-.31.82.82,0,0,1,.51,0,.6.6,0,0,1,.37.34.58.58,0,0,1,0,.43.55.55,0,0,1-.21.25.52.52,0,0,1-.33.08A1,1,0,0,1,87,73.6Zm1.9,0a3.11,3.11,0,0,1,.22-.45.37.37,0,0,1,.23-.16.5.5,0,0,1,.31,0,.74.74,0,0,1,.3.25.77.77,0,0,1,.15.43,1.12,1.12,0,0,1-.09.51.87.87,0,0,1-.4.46.6.6,0,0,1-.52,0,.61.61,0,0,1-.25-.19.59.59,0,0,1-.12-.26.52.52,0,0,1,0-.2s.07-.19.18-.45Zm.9-3.62.15.14a1.63,1.63,0,0,1,0,.53A1.61,1.61,0,0,1,90,71a1.45,1.45,0,0,1-.32.51,1,1,0,0,1-.54.29,1.33,1.33,0,0,1-.72-.07,1.68,1.68,0,0,1-.44-.23,1.22,1.22,0,0,1-.26-.24,1.08,1.08,0,0,1-.14-.32,1.66,1.66,0,0,1-.07-.42,1.16,1.16,0,0,1,.07-.43,1,1,0,0,1,.33-.47.8.8,0,0,1,.47-.18,1.24,1.24,0,0,1,.49.08l.14.06,0,0a2.82,2.82,0,0,1-.11.46l-.12.38-.28.78a1.07,1.07,0,0,0,.84,0,.9.9,0,0,0,.46-.52,1,1,0,0,0,.06-.35,2.19,2.19,0,0,0,0-.39l.05,0Zm-1.56,1.2s.06-.14.14-.33l.17-.43a4.23,4.23,0,0,0,.14-.42l-.09,0A.92.92,0,0,0,88,69.9a.55.55,0,0,0-.34.35.58.58,0,0,0,0,.53A1,1,0,0,0,88.27,71.16Z"/><path class="cls-1" d="M206,86.57h0a.1.1,0,0,0-.1,0l-.5.7h-1.63l-1.09-.54h0a.09.09,0,0,0-.1.09V99.64h0v0q0,.26.42.13a3.83,3.83,0,0,0,.78-.44.09.09,0,0,0,0-.08V87.9h1.67a10.37,10.37,0,0,1-.33,1.48,9.49,9.49,0,0,1-.58,1.45v0a.75.75,0,0,0,0,.47,1.07,1.07,0,0,0,.3.42,3.83,3.83,0,0,1,1,1.3,2.47,2.47,0,0,1,.17,1.38h0a.75.75,0,0,1-.3.6,1,1,0,0,1-.48.16,1.08,1.08,0,0,1-.49,0,3.51,3.51,0,0,0-.44-.12c-.23,0-.54,0-.25.3a1.54,1.54,0,0,0,.39.21,1.18,1.18,0,0,1,.48.34.78.78,0,0,1,.16.56.53.53,0,0,0,0,.24.23.23,0,0,0,.07.11.28.28,0,0,0,.24,0l.17-.06a3.64,3.64,0,0,0,.66-.43h0a2.43,2.43,0,0,0,.81-.89h0a2.25,2.25,0,0,0,.23-1.13h0c0-.14,0-.29-.06-.42h1.47a3.36,3.36,0,0,1,0,.84h0a7.2,7.2,0,0,1-.24,1.1l0,.11a4.55,4.55,0,0,1-1.19,2,7.41,7.41,0,0,1-2.34,1.5h0q-.77.39-.51.53h0a2.48,2.48,0,0,0,1-.12h0a6.47,6.47,0,0,0,2.34-1,5.11,5.11,0,0,0,1.58-1.72,4.83,4.83,0,0,0,.53-1.48,8.34,8.34,0,0,0,.14-1.79H211V98.3a1.42,1.42,0,0,0,.28.93,1.24,1.24,0,0,0,.84.41h2.18a2.66,2.66,0,0,0,1.1-.2,1.18,1.18,0,0,0,.62-.6.85.85,0,0,0,.14-.42.38.38,0,0,0-.17-.32h0a.83.83,0,0,1-.41-.52,4.2,4.2,0,0,1-.19-1.2h0q0-.76-.14-.79c-.1,0-.2.19-.3.66l0,.12c0,.25-.08.47-.12.67h0q-.05.27-.11.49a1.48,1.48,0,0,0,0,.16.69.69,0,0,1-.21.44.8.8,0,0,1-.54.16h-1.16a.78.78,0,0,1-.33-.22h0a.48.48,0,0,1-.11-.32V93.89h3.31a.1.1,0,0,0,.09-.05q.13-.24-.19-.6a5.18,5.18,0,0,0-1-.77h0a.1.1,0,0,0-.11,0l-1,.73H207a2.88,2.88,0,0,0-.4-.72,3.23,3.23,0,0,0-.58-.83,4.83,4.83,0,0,0-.83-.68q.61-.91,1-1.65a9.44,9.44,0,0,0,.62-1.31.66.66,0,0,0,.26-.09.25.25,0,0,0,.12-.23.52.52,0,0,0-.12-.27,4.76,4.76,0,0,0-1-.85Zm5.77,1.81,2.21.05.62-.85a.1.1,0,0,1,.13,0h0a9.8,9.8,0,0,1,1.11.77,1.19,1.19,0,0,1,.45.56.09.09,0,0,1-.08.11h0a4.6,4.6,0,0,0-1.12.37,8.74,8.74,0,0,0-1.29.76h0a1.83,1.83,0,0,1-.43.24h-.09a5.39,5.39,0,0,1,.62.66q.3.41,0,.51h-5.6a.1.1,0,0,1-.09-.07L208,91a.09.09,0,0,1,.06-.12h4.05l.76-.72a.1.1,0,0,1,.13,0l.13.12v0a.43.43,0,0,1,.06-.17l.58-1.15h-5.23a2.61,2.61,0,0,1,0,1,1.17,1.17,0,0,1-.47.71l0,0a2,2,0,0,1-.85,0,.63.63,0,0,1-.28-.18.54.54,0,0,1-.13-.29,1.17,1.17,0,0,1,.07-.51v0a3.57,3.57,0,0,0,.49-.82,2.78,2.78,0,0,0,.21-.83.59.59,0,0,1,0-.08c0-.16.1-.25.2-.28s.23,0,.38.15l0,0,.26.58h2.36l-.06-.41v0h0a1.7,1.7,0,0,0-.14-.85,1.44,1.44,0,0,0-.54-.6l0,0c-.13-.17-.14-.3,0-.38a.71.71,0,0,1,.49,0h0a3.32,3.32,0,0,1,1,.45,1.74,1.74,0,0,1,.61.69v0a1.48,1.48,0,0,1-.16.87A.88.88,0,0,1,211.76,88.37Z"/><path class="cls-1" d="M189.5,90.41a4.26,4.26,0,0,1-.13,1,2.09,2.09,0,0,1-.4.81,1,1,0,0,1-.5.39.58.58,0,0,1-.54-.15h0a.82.82,0,0,1-.2-.67,1.72,1.72,0,0,1,.36-.76l.06-.07a2,2,0,0,0,.53-.8h0a3.31,3.31,0,0,0,.18-1.16.09.09,0,0,1,0-.06.56.56,0,0,1,.16-.17h0a.16.16,0,0,1,.14,0,.17.17,0,0,1,.09.09h0a.78.78,0,0,1,0,.29l.17.52h7.11a10.44,10.44,0,0,0,.56-1.33q.33-.92.75-2.31A.1.1,0,0,1,198,86h0a3.83,3.83,0,0,1,1.25.76h0q.3.38-.34.53l-1.67,2.4h2.34l.68-.65a.1.1,0,0,1,.13,0,7.3,7.3,0,0,1,1.18,1.23h0a.76.76,0,0,1,.13.3.23.23,0,0,1-.07.22l-.06,0-.15,0a3.62,3.62,0,0,0-.92.28,4.56,4.56,0,0,0-.89.54,1.54,1.54,0,0,1-.39.25h0a.16.16,0,0,1-.16,0,.2.2,0,0,1,0-.2,2.08,2.08,0,0,1,.2-.44h0l.25-.47.19-.38Zm.79-3.52h0A6.25,6.25,0,0,1,191,88a6,6,0,0,1,.44,1.21.77.77,0,0,0,.06.24.4.4,0,0,0,.16.18h0a.45.45,0,0,0,.26,0h0a1.1,1.1,0,0,0,.34-.1h0l0,0a1.21,1.21,0,0,0,.35-.75,1.9,1.9,0,0,0-.2-.93h0a3.06,3.06,0,0,0-.77-.88,6.1,6.1,0,0,0-1.25-.75h0q-.38-.11-.38.14a1.12,1.12,0,0,0,.27.52Zm3.32-.71h0a6.68,6.68,0,0,1,.38,1.18,5.32,5.32,0,0,1,.13,1.07s0,.07,0,.11a1.15,1.15,0,0,0,.11.46l0,0a.44.44,0,0,0,.11.11l.09,0a.4.4,0,0,0,.15,0,.78.78,0,0,0,.32-.11l.08-.07a1.25,1.25,0,0,0,.31-.63,1.84,1.84,0,0,0,0-.76,1.18,1.18,0,0,0-.06-.17,4,4,0,0,0-1-1.32h0a1.25,1.25,0,0,0-.5-.35c-.18,0-.24.09-.17.36Zm-.37,13.12,0,.11h0a.6.6,0,0,0,.15.31.34.34,0,0,0,.3.09h0a3,3,0,0,0,1.28-.6,1,1,0,0,0,.36-.93V95.72h5.83a.51.51,0,0,0,.17-.1.3.3,0,0,0,.08-.3.86.86,0,0,0-.2-.34h0a6,6,0,0,0-1.14-.92.1.1,0,0,0-.13,0l-.76,1h-3.85v-.45a6.69,6.69,0,0,1,3-1.53q.51-.1.27-.56a4,4,0,0,0-.94-1l0,0a.1.1,0,0,0-.11,0l-.76.49-6.58.07h0a.09.09,0,0,0-.06.12l.19.49a.1.1,0,0,0,.09.07h5.75l-1,1.15-.4-.23-.09,0q-.3-.16-.7-.33h0a.09.09,0,0,0-.1.09V95h-6.21a.09.09,0,0,0-.07.11l.13.5a.09.09,0,0,0,.09.07h6l.07,0v1.88h0v0h0c0,.08-.08.14-.21.19a2.31,2.31,0,0,1-.71.08,10.5,10.5,0,0,1-1.26-.1h-.06l-.12.07a.09.09,0,0,0,0,.12l.06.14a.09.09,0,0,0,.06.05,5.53,5.53,0,0,1,1.22.56q.39.26.42.51h0Zm.51.51h0Zm.54-13.64h0Zm-7.09,8h0Z"/><path class="cls-1" d="M180.66,91.94q-.15-.49,0-.61h0c.16-.15.83.38,1,.51a2.29,2.29,0,0,1,.39.46,1.12,1.12,0,0,1,.28.79,1.22,1.22,0,0,1-.42.76h0q-.34.36-.56.25h0q-.21-.1-.25-.62h0a4.83,4.83,0,0,0-.13-.87,2.48,2.48,0,0,0-.25-.65v0Zm.25-3.93c-.17-.27-.23-.45-.17-.54h0c0-.07.14-.08.28,0a4.85,4.85,0,0,1,1.15.52,2.27,2.27,0,0,1,.82.84,1,1,0,0,1,.09.37,1.47,1.47,0,0,1-.29.87h0a1.11,1.11,0,0,1-.27.27.37.37,0,0,1-.27.06.38.38,0,0,1-.23-.16h0a1,1,0,0,1-.12-.22,1.85,1.85,0,0,1-.09-.43,2.25,2.25,0,0,0-.21-.62,2.71,2.71,0,0,0-.39-.56,2.87,2.87,0,0,1-.3-.36Zm4.33-1.91a3.61,3.61,0,0,0-1.28-.28.09.09,0,0,0-.1.09v8.31l-5.55,1.24h0a.09.09,0,0,0,0,.12l.2.43a.1.1,0,0,0,.11.06l5.31-1.16v4.77h0v0q.09.31.53.19a3.9,3.9,0,0,0,1-.51h0a.09.09,0,0,0,0-.09,15.64,15.64,0,0,1-.11-1.57q0-1.18-.08-3.16l1.95-.36h0a1,1,0,0,0,.43-.19.27.27,0,0,0,.1-.26.49.49,0,0,0-.17-.26,4.42,4.42,0,0,0-1.2-.66.1.1,0,0,0-.12,0l-.5.9-.5.1V86.71a.66.66,0,0,0,.21-.19.22.22,0,0,0,0-.24h0a.47.47,0,0,0-.21-.17Zm-11.57,1.85h0Zm3.6,3.06v1a4.63,4.63,0,0,1,1.63.67,1.09,1.09,0,0,1,.42.55,2.59,2.59,0,0,1,0,1q-.16.75-.8.35a.09.09,0,0,1,0,0,8.22,8.22,0,0,0-.74-1.31,1.38,1.38,0,0,0-.42-.41v6.26a.09.09,0,0,1,0,.08,3.75,3.75,0,0,1-.72.43h0a.71.71,0,0,1-.27.06.25.25,0,0,1-.21-.1h0l0-.05a.09.09,0,0,1,0,0h0V93.73a14.17,14.17,0,0,1-1,1.6A13,13,0,0,1,173.47,97l-.05,0-.27,0-.13,0c-.06,0-.09,0-.1-.07a.35.35,0,0,1,0-.21A26.75,26.75,0,0,0,175,93.49h0a9.67,9.67,0,0,0,.92-2.48h-2.32a.1.1,0,0,1-.09,0l-.32-.5a.09.09,0,0,1,0-.13H176V88q-.85.17-1.35.23a1.79,1.79,0,0,1-.7,0,.86.86,0,0,1-.41-.1c-.11-.1,0-.19.22-.26h0q1.12-.31,2.29-.76t2.43-1a.1.1,0,0,1,.11,0,3.8,3.8,0,0,1,.92,1q.18.45-.48.38c-.27,0-.56.06-.86.11s-.59.11-.9.18v2.59h.51l.81-.67a.1.1,0,0,1,.13,0,5.29,5.29,0,0,1,.87.76.77.77,0,0,1,.16.28h0a.23.23,0,0,1-.06.24l-.1.06h-2.31Z"/><path class="cls-1" d="M162.78,92.3h0Zm0-1.22h0Zm8.8-1.33a.8.8,0,0,1-.23.19q0,2,0,3.38a21.7,21.7,0,0,0,.15,2.24.09.09,0,0,1-.06.1,4.7,4.7,0,0,1-1,.37.71.71,0,0,1-.61-.07.09.09,0,0,1,0-.07h0v-6.1h-3.56v6a.09.09,0,0,1,0,.06,2.53,2.53,0,0,1-.68.66h0a.93.93,0,0,1-.68.14.09.09,0,0,1-.07-.09h0V88.79a.09.09,0,0,1,.1-.09h0l1.26.44h.59q.17-.59.28-1.09c.06-.3.11-.59.14-.84h-3.1l-.4-.56a.09.09,0,0,1,0-.12h6.16l1-.81a.1.1,0,0,1,.11,0h0a6.53,6.53,0,0,1,1.35.94h0a.58.58,0,0,1,.15.24.21.21,0,0,1-.09.23h0a.58.58,0,0,1-.26.09h-3.49q-.32.46-.63,1t-.55,1h2l.65-.61a.1.1,0,0,1,.1,0h0a4.41,4.41,0,0,1,1.18.6.68.68,0,0,1,.23.31.38.38,0,0,1-.07.33Zm-12.75-3.06h3.58l.52-.36a.1.1,0,0,1,.08,0l.13.05a1.93,1.93,0,0,1,1.14,1.08.27.27,0,0,1-.14.24h0a1.05,1.05,0,0,1-.42.12l-2.07,1.48a.81.81,0,0,1,.28.62,1.55,1.55,0,0,1-.27.79h1l.59-.48a.1.1,0,0,1,.11,0h0a4.26,4.26,0,0,1,1,.7h0a.43.43,0,0,1,.12.22.21.21,0,0,1-.1.21h0a.7.7,0,0,1-.3.1l-.47.37h0l-.73.61c-.17.18-.3.24-.39.18s-.09-.21,0-.45v0a2.56,2.56,0,0,0,.2-.87l-.83.05.13,6.42v0h0a1.71,1.71,0,0,1-.27.58,2.7,2.7,0,0,1-.51.54h0a.82.82,0,0,1-.38.19.28.28,0,0,1-.3-.16v0h0a1.08,1.08,0,0,0-.49-.63,3.35,3.35,0,0,0-1.14-.43h0q-.72-.25-.31-.36a2.21,2.21,0,0,1,.56,0,5.82,5.82,0,0,0,.65,0,4.32,4.32,0,0,0,.58,0,.78.78,0,0,0,.38-.12V91.26h-2.15a.1.1,0,0,1-.09-.05l-.27-.43a.09.09,0,0,1,0-.13h.05l2.65.06a8.17,8.17,0,0,0-.55-1.11,6,6,0,0,0-.73-1q-.49-.42-.43-.55h0l0,0h0c.09,0,.3,0,.62.14a4.12,4.12,0,0,1,.84.37,2.27,2.27,0,0,1,.49.38q.36-.5.63-.92t.39-.66H159a.1.1,0,0,1-.09-.06l-.2-.43a.09.09,0,0,1,0-.12Zm8.71,4a7.57,7.57,0,0,1,1.16.45h0q.44.24.32.44l0,0-.26.23a8.78,8.78,0,0,1-.14,2.45,9.89,9.89,0,0,1-.85,2.46,4.1,4.1,0,0,1-1.69,1.83,8.76,8.76,0,0,1-3,1h0c-.43,0-.66,0-.69-.09s.16-.24.56-.41h0A9.57,9.57,0,0,0,165.2,98a4.87,4.87,0,0,0,1.47-1.73,6,6,0,0,0,.61-1.92,16.74,16.74,0,0,0,.13-3.56.09.09,0,0,1,.09-.1Zm1.1,6.09h0a7.12,7.12,0,0,1,1.18,1.12,4.69,4.69,0,0,1,.73,1.21h0v0a.86.86,0,0,0,.37.28h0a.4.4,0,0,0,.21,0,.44.44,0,0,0,.19-.1,1.49,1.49,0,0,0,.37-.67h0v0a1.41,1.41,0,0,0-.24-1,2.48,2.48,0,0,0-1-.78,4.89,4.89,0,0,0-.74-.34h0a6.2,6.2,0,0,0-.86-.24h0a.93.93,0,0,0-.35,0h0a.19.19,0,0,0-.12.1h0a.18.18,0,0,0,0,.15A.91.91,0,0,0,168.64,96.78Z"/><path class="cls-1" d="M147.51,86.51a.1.1,0,0,0-.13,0l-.46.69h-1.51l-1-.54h0a.09.09,0,0,0-.1.09V99.58h0v0q0,.26.4.13a3.51,3.51,0,0,0,.73-.44.09.09,0,0,0,0-.08V87.84H147a10.85,10.85,0,0,1-.31,1.47,10,10,0,0,1-.54,1.46v0a.8.8,0,0,0,0,.46h0a1.08,1.08,0,0,0,.28.42,3.83,3.83,0,0,1,.9,1.3h0a2.63,2.63,0,0,1,.16,1.38h0a.78.78,0,0,1-.28.61,1.15,1.15,0,0,1-.75.17,2.77,2.77,0,0,0-.65-.19h0a.22.22,0,0,0-.13,0l0,0a.13.13,0,0,0,0,.15,1.06,1.06,0,0,0,.25.26l0,0a1.18,1.18,0,0,1,.56.38.83.83,0,0,1,.15.57.55.55,0,0,0,0,.24.2.2,0,0,0,.15.15.38.38,0,0,0,.22,0h0a2.8,2.8,0,0,0,.71-.47,2.29,2.29,0,0,0,1-2h0a3.71,3.71,0,0,0-.61-1.82,3.24,3.24,0,0,0-.54-.83,4.64,4.64,0,0,0-.78-.69q.57-.91,1-1.65a9.64,9.64,0,0,0,.57-1.31q.53-.09.3-.51A3.57,3.57,0,0,0,147.51,86.51Z"/><path class="cls-1" d="M156.31,87.94h.05q.47-.21.09-.58a4.62,4.62,0,0,0-1.24-.71.1.1,0,0,0-.11,0l-.74.73h-4.91a.08.08,0,0,0,0,.11l.18.39a.09.09,0,0,0,.08.06Z"/><path class="cls-1" d="M148.31,90.95h7.14l.74-.73a.1.1,0,0,1,.11,0h0a4.43,4.43,0,0,1,1.13.77q.33.39-.2.52H153.4v7.11a.88.88,0,0,1-.34.68,2.61,2.61,0,0,1-.94.47.38.38,0,0,1-.41,0,.72.72,0,0,1-.23-.43h0a.45.45,0,0,0-.27-.31h0a2.73,2.73,0,0,0-.8-.24h0c-.3-.1-.45-.19-.45-.27s.16-.15.48-.15h0a3.56,3.56,0,0,0,1.25-.12c.25-.09.37-.23.37-.42V91.51h-3.55l-.06,0a1.23,1.23,0,0,1-.23-.41.09.09,0,0,1,.06-.12Z"/><path class="cls-1" d="M151.37,93.68l-.3.23a20.36,20.36,0,0,1-1.58,2.81,10.29,10.29,0,0,1-1.7,2h0c-.26.15-.43.19-.49.1h0q-.09-.12.17-.48h0A14.63,14.63,0,0,0,149,95.74a17,17,0,0,0,1.07-3,.1.1,0,0,1,.12-.07h0a5.31,5.31,0,0,1,.75.3,1.29,1.29,0,0,1,.38.27.32.32,0,0,1,.09.32h0l0,0Z"/><path class="cls-1" d="M156.21,94.72a4.56,4.56,0,0,1,.83,1.1,1.59,1.59,0,0,1,.15,1,2,2,0,0,1-.48.94h0q-.3.29-.54.19c-.15-.06-.25-.25-.33-.55h0a9.56,9.56,0,0,0-.3-1.05,7.48,7.48,0,0,0-.4-.93q-.44-.86-.75-1.37h0a2.64,2.64,0,0,0-.44-.6l0,0a1,1,0,0,1-.14-.31.28.28,0,0,1,0-.07.17.17,0,0,1,0-.09l0,0,.09,0H154a1.22,1.22,0,0,1,.35.11h0A10.58,10.58,0,0,1,156.21,94.72Z"/><path class="cls-1" d="M128.74,87.3l-.32.48V99.33a.09.09,0,0,1,0,.08,4.71,4.71,0,0,1-.84.39c-.24.07-.41.07-.5,0a.09.09,0,0,1,0-.06h0V86.61a.09.09,0,0,1,.1-.09h0q2,.35,1.62.78Zm-3.53,1.59.07,7.81a.09.09,0,0,1,0,.07h0a4.3,4.3,0,0,1-.87.6.69.69,0,0,1-.31.08.26.26,0,0,1-.21-.11l0-.07a.42.42,0,0,1,0-.08.44.44,0,0,1,0-.07V87.89a.09.09,0,0,1,.1-.09h0a3.54,3.54,0,0,1,1.54.39q.4.31-.24.71Zm-7,2.17v4.27l1.33-.36h0q.34-.09.34.09c0,.07-.08.17-.25.3h0l-3.42,1.82a.91.91,0,0,1-.07.31l0,0a.17.17,0,0,1-.19.07.39.39,0,0,1-.19-.14h0a5.71,5.71,0,0,1-.65-1.26.09.09,0,0,1,.05-.12h0l1.66-.38V91.07h-1.5a.1.1,0,0,1-.08,0l-.29-.45a.09.09,0,0,1,0-.13h1.83V86.38a.09.09,0,0,1,.1-.09h0a9,9,0,0,1,1.25.47,1.39,1.39,0,0,1,.31.2l0,0a.23.23,0,0,1,.07.21l0,.06-.06.06-.3.28v2.84h.59l.77-.6a.1.1,0,0,1,.1,0l0,0a3.85,3.85,0,0,1,.89.66.48.48,0,0,1,.12.24.23.23,0,0,1-.07.21l0,0a.61.61,0,0,1-.21.08h-2.19Zm-.7,8.83h0Zm0,0,0,0a.09.09,0,0,0-.06.11h0a.16.16,0,0,0,.12.09,1.12,1.12,0,0,0,.39,0h0a7.13,7.13,0,0,0,2-1.31,6.23,6.23,0,0,0,.95-1.13c.2-.3.38-.62.55-.93a7.09,7.09,0,0,0,.56-2.47,50.53,50.53,0,0,0,.14-5.61l.13-1.16q.62-.34.17-.66A4.39,4.39,0,0,0,121,86.4H121a.09.09,0,0,0-.08.09q0,3.55,0,5.63t-.08,2.67V95a5.33,5.33,0,0,1-.8,2.44,7.81,7.81,0,0,1-2.15,2.21h0A1.11,1.11,0,0,0,117.55,99.9Z"/><path class="cls-1" d="M142.84,87.74a1.7,1.7,0,0,1-.19.46,1.25,1.25,0,0,1-.27.31q0,1.59,0,4.21t.18,6.38a.09.09,0,0,1,0,.08,4,4,0,0,1-.94.45c-.27.07-.47,0-.58-.09a.09.09,0,0,1,0-.06h0v-.91h-9.36v.78a.09.09,0,0,1,0,.07,2.5,2.5,0,0,1-.74.52.72.72,0,0,1-.63,0,.09.09,0,0,1,0-.08h0V86.66a.09.09,0,0,1,.1-.09h0l1.25.43,9.17.06.71-.54a.1.1,0,0,1,.11,0,4.77,4.77,0,0,1,.83.57,1.93,1.93,0,0,1,.48.59.09.09,0,0,1,0,.06ZM131.62,95.6h3.49V92.92h-2.72a.1.1,0,0,1-.09-.06l-.23-.52a.09.09,0,0,1,0-.12h3V89.79h-3.25a.09.09,0,0,1-.09-.07l-.15-.46V95.6Zm9.36.62a.63.63,0,0,1-.44.08h-8.73a.1.1,0,0,1-.09-.06l-.1-.22V97.9H141V96.23Zm-4.56-6.44v2.42h1.85l.67-.81a.1.1,0,0,1,.13,0,3.84,3.84,0,0,1,1.15.92q.28.44-.3.61h-1.44a1.47,1.47,0,0,1,.6.51,1.14,1.14,0,0,1,.08,1h0l0,.07h0q-.28.92-.76,0h0a6.63,6.63,0,0,0-.46-.83,2.25,2.25,0,0,0-.42-.49h0a2.32,2.32,0,0,1-.27-.26h-.81V95.6H139l.79-.88a.1.1,0,0,1,.13,0h0A4.67,4.67,0,0,1,141,95.85V87.63h-9.36v1.49l0,0h6.73l.62-.75a.1.1,0,0,1,.13,0,5.19,5.19,0,0,1,1.16.92.47.47,0,0,1,.12.26.23.23,0,0,1-.14.21,1,1,0,0,1-.43.07Zm6.11,9.4h0Zm-10.81-2.95v0a.08.08,0,0,0,0,0Zm7.35-4.86h0Z"/><path class="cls-1" d="M103.66,87.81h0Zm2.8-.74h5.84l.49-.65a.1.1,0,0,1,.13,0h0a8,8,0,0,1,1.21.81h0q.42.37.34.61a.09.09,0,0,1-.09.06h0a2.16,2.16,0,0,0-1.07.3,4.33,4.33,0,0,0-1.09.92l0,0c-.17.08-.29.09-.36,0s-.09-.17,0-.33.14-.48.21-.69.12-.31.18-.44h-5.7q.11,1.86-.81,2h0a1,1,0,0,1-.79-.08.44.44,0,0,1-.14-.16c-.05-.18-.09-.43.14-.37.51.16.43-1,.65-1.46h0a2.26,2.26,0,0,0,.24-.74.61.61,0,0,1,0-.1,1.23,1.23,0,0,1,.12-.38h0a.19.19,0,0,1,.1-.08.15.15,0,0,1,.15,0,.54.54,0,0,1,.11.19l0,.07.16.46Zm4,1.83h0q-.46-.12-.5.07h0q0,.14.34.46h0l.85.75a6.92,6.92,0,0,1,.71.85,4.12,4.12,0,0,1,.45.8v0q.24.37.52.29c.17,0,.33-.23.5-.54v0a1.82,1.82,0,0,0,0-.66,2.15,2.15,0,0,0-.22-.65v0a3.07,3.07,0,0,0-.67-.53,5.36,5.36,0,0,0-.93-.43l-1-.37Zm-5,3.8,0,0,1.45-1.38,1.6-1.48a.68.68,0,0,0,.3-.1.19.19,0,0,0,.09-.2h0a.42.42,0,0,0-.14-.2,5,5,0,0,0-1.16-.67.1.1,0,0,0-.12,0q-.61,1.05-1.15,1.88l-.16.24q-.52.79-1,1.37h0a1.42,1.42,0,0,0-.21.4h0a.18.18,0,0,0,0,.14h0a.16.16,0,0,0,.15.06.79.79,0,0,0,.29-.1Zm4.6-1.13-.29.38v1.19h2.55l.82-.85a.1.1,0,0,1,.12,0h0a4.81,4.81,0,0,1,.93.75h0a.85.85,0,0,1,.28.65.09.09,0,0,1-.09.08h-3.84A7.68,7.68,0,0,0,112.15,96a4.9,4.9,0,0,0,2.25,1.17c.3.05.44.13.41.24s-.18.15-.49.19h0a.89.89,0,0,0-.45.21,2.2,2.2,0,0,0-.45.56.1.1,0,0,1-.12,0,5,5,0,0,1-2-1.66,11.33,11.33,0,0,1-1.51-3h-.1v5.35a.09.09,0,0,1,0,.06,3.53,3.53,0,0,1-.69.61.71.71,0,0,1-.35.12h0a.33.33,0,0,1-.28-.14h0a.59.59,0,0,1-.09-.18.08.08,0,0,1,0,0l.19-5.82h0a12.13,12.13,0,0,1-1.88,3.05,7.16,7.16,0,0,1-2.19,1.74l-.45.23-.17.07h0a.13.13,0,0,1-.15,0,.14.14,0,0,1,0-.15h0a2.58,2.58,0,0,1,.33-.36l.07-.07a15.93,15.93,0,0,0,2-2.34,8.73,8.73,0,0,0,1.13-2.16h-2.49a.1.1,0,0,1-.09-.06l-.2-.43a.09.09,0,0,1,0-.12h4V90.85a.09.09,0,0,1,.1-.09h0a5.77,5.77,0,0,1,1,.32c.26.12.4.25.43.38a.12.12,0,0,1,0,.1Zm-9.44-2a3.29,3.29,0,0,1,1.93.64,1.26,1.26,0,0,1,.26,1.44h0q-.28.52-.53.6c-.19.06-.35-.06-.47-.36a.09.09,0,0,1,0,0,2.29,2.29,0,0,0-.32-1.06,3.5,3.5,0,0,0-.87-1l0,0-.06-.12a.09.09,0,0,1,0-.12Zm1-2.79c-.11-.12-.13-.22-.06-.3a.52.52,0,0,1,.36-.09h0a4.35,4.35,0,0,1,1.61.61h0a.74.74,0,0,1,.32.91,2.14,2.14,0,0,1-.36.89q-.27.25-.46-.28v0h0a1.44,1.44,0,0,0-.37-.76h0a6,6,0,0,0-1.05-.95Zm4.89.35c7.19,0,11,.62,0,.62q.11,1.86-.81,2h0a1,1,0,0,1-.79-.08.38.38,0,0,1-.12-.16,43.93,43.93,0,0,0-1.72,6,4.15,4.15,0,0,0,0,2,1.87,1.87,0,0,1-.18,1.78q-.7.43-1.11-.37a1.3,1.3,0,0,1-.06-.86,2.56,2.56,0,0,0,.12-1.84l-.47-.49c-.7-.45-.78-.65-.23-.61l.41.06c.35,0,.62-.18.82-.68l2.11-5.21c.28-.69.31-.34.52-.59a10.82,10.82,0,0,0,.56-1h0a2.1,2.1,0,0,0,.24-.78v0a1.34,1.34,0,0,1,.12-.42h0a.19.19,0,0,1,.1-.08.15.15,0,0,1,.15,0,.59.59,0,0,1,.13.21h0l.17.5Zm-1.65,2.64a1,1,0,0,0,0-.46l0-.08,0,0c0-.09,0-.19,0-.29l0,.32,0-.07-.11.31q-.55,1.53-1,3t-.74,3a3.61,3.61,0,0,0-.12,1,5.18,5.18,0,0,0,.12,1.07h0a2.18,2.18,0,0,1,.13.91,1.52,1.52,0,0,1-.27.73l-.06,0a.58.58,0,0,1-.44.07.7.7,0,0,1-.36-.33l-.06-.1a1.25,1.25,0,0,1-.09-.38,1.16,1.16,0,0,1,0-.38,4.08,4.08,0,0,0,.24-1.07,1.83,1.83,0,0,0-.13-.85v0l0,0-.47-.49h0a2.55,2.55,0,0,1-.5-.38h.19l.41.06h0a.73.73,0,0,0,.56-.17,1.43,1.43,0,0,0,.39-.59h0l2.11-5.2c.1-.2.19-.35.26-.47s0,0-.11,0a2.11,2.11,0,0,0-.65,1.05l-1.84,4.56h0a1.19,1.19,0,0,1-.31.49.48.48,0,0,1-.37.11l-.41-.06h0a.85.85,0,0,0-.36,0h0a.19.19,0,0,0-.13.17.28.28,0,0,0,.07.19h0a2.4,2.4,0,0,0,.57.45l.44.46a1.61,1.61,0,0,1,.1.72,3.85,3.85,0,0,1-.23,1h0a1.41,1.41,0,0,0,0,.47,1.5,1.5,0,0,0,.11.47h0l.07.12a.94.94,0,0,0,.5.44.82.82,0,0,0,.63-.08l.09-.05h0l0,0a1.78,1.78,0,0,0,.33-.87,2.43,2.43,0,0,0-.14-1,4.91,4.91,0,0,1-.11-1,3.38,3.38,0,0,1,.11-.89h0q.31-1.49.74-3t.9-2.8ZM101.55,95h0Z"/></svg>